<?xml version="1.0" encoding="utf-8"?>
<!-- Generator: Adobe Illustrator 16.0.0, SVG Export Plug-In . SVG Version: 6.00 Build 0)  -->
<!DOCTYPE svg PUBLIC "-//W3C//DTD SVG 1.1 Tiny//EN" "http://www.w3.org/Graphics/SVG/1.1/DTD/svg11-tiny.dtd">
<svg version="1.1" baseProfile="tiny" id="Layer_1" xmlns="http://www.w3.org/2000/svg" xmlns:xlink="http://www.w3.org/1999/xlink"
	 x="0px" y="0px" width="256px" height="256px" viewBox="0 0 256 256" xml:space="preserve">
<g>
	<path fill="#0A2D50" d="M238.569,81.289c-6.044-14.29-14.698-27.123-25.717-38.142c-11.02-11.02-23.852-19.671-38.142-25.715
		C159.914,11.173,144.198,8,128,8s-31.915,3.173-46.709,9.432c-2.443,1.033-4.84,2.147-7.195,3.333c0,0,0.003,0.001,0.003,0.003
		c-5.788-5.55-13.553-9.079-22.179-9.381c-0.4-0.013-0.8-0.021-1.198-0.021c-8.776,0-17.095,3.359-23.424,9.46
		C20.951,26.94,17.287,35.16,16.979,43.969c-0.293,8.383,2.467,16.404,7.8,22.793l0,0c-2.764,4.653-5.221,9.498-7.348,14.527
		C11.173,96.085,8,111.802,8,128s3.173,31.916,9.432,46.711c6.044,14.291,14.695,27.123,25.715,38.142S67,232.525,81.291,238.566
		C96.085,244.827,111.802,248,128,248s31.914-3.173,46.711-9.434c14.29-6.041,27.122-14.695,38.142-25.714
		c11.019-11.019,19.673-23.851,25.717-38.142C244.827,159.916,248,144.198,248,128S244.827,96.085,238.569,81.289z M78.254,46.109
		c-0.532,15.224-13.141,27.088-28.475,26.552c-7.348-0.257-14.156-3.36-19.172-8.738c-5.016-5.379-7.635-12.386-7.38-19.736
		c0.521-14.899,12.598-26.569,27.494-26.569c0.327,0,0.652,0.006,0.98,0.018C66.872,18.165,78.783,30.938,78.254,46.109z"/>
	<g>
		<path fill="#FFFFFF" d="M109.711,185.756C94.285,170.328,85.789,149.817,85.789,128c0-8.972,1.44-17.723,4.204-25.991
			c-1.051-0.452-2.105-0.886-3.16-1.302c-3.622-1.399-7.243-2.584-10.864-3.554c-3.631-0.958-7.242-1.698-10.83-2.217
			c-1.944-0.274-3.873-0.481-5.788-0.624c-4.003,10.471-6.205,21.826-6.205,33.687c0,52.154,42.432,94.588,94.588,94.588
			c26.267,0,50.063-10.764,67.217-28.11c-13.76,9.873-30.211,15.202-47.482,15.202C145.651,209.68,125.139,201.184,109.711,185.756z
			"/>
		<path fill="#FFFFFF" d="M76.43,199.303C57.384,180.26,46.895,154.936,46.895,128c0-11.739,1.994-23.172,5.82-33.914
			c-2.871,0.022-5.695,0.203-8.473,0.547c-3.36,0.417-6.627,1.065-9.797,1.944c-3.18,0.881-6.243,2.003-9.188,3.368
			c-2.956,1.365-5.764,2.972-8.426,4.822c-0.076,0.053-0.149,0.107-0.226,0.159c-1.541,7.454-2.354,15.17-2.354,23.073
			c0,62.719,51.028,113.748,113.748,113.748c30.961,0,59.067-12.439,79.597-32.575c-17.235,12.768-38.019,19.667-59.862,19.667
			C120.798,228.84,95.476,218.352,76.43,199.303z"/>
		<path fill="#FFFFFF" d="M239.188,151.25c-2.675,1.849-5.484,3.451-8.426,4.805c-2.947,1.365-6.009,2.493-9.19,3.384
			c-3.181,0.882-6.445,1.523-9.797,1.931c-3.362,0.416-6.79,0.598-10.288,0.539c-3.496-0.044-7.033-0.328-10.607-0.844
			c-3.59-0.51-7.198-1.248-10.831-2.218c-3.62-0.958-7.241-2.142-10.862-3.554c-3.621-1.409-7.214-3.041-10.78-4.89
			c-3.574-1.837-7.094-3.905-10.557-6.193c-3.463-2.268-6.853-4.755-10.171-7.462c-3.326-2.707-6.547-5.625-9.66-8.748H128
			l0.018-0.018c-3.136-3.103-6.362-6.006-9.68-8.715c-3.316-2.706-6.705-5.198-10.168-7.478c-3.475-2.279-6.995-4.343-10.559-6.192
			c-0.623-0.32-1.245-0.632-1.868-0.939c-2.398,7.354-3.701,15.198-3.701,23.342c0,41.59,33.837,75.428,75.428,75.428
			c33.497,0,61.96-21.949,71.771-52.219C239.223,151.224,239.205,151.238,239.188,151.25z"/>
		<polygon fill="#FFFFFF" points="167.841,122.161 157.933,122.161 162.887,127.116 		"/>
		<polygon fill="#FFFFFF" points="162.887,96.254 151.174,107.966 174.6,107.966 		"/>
		<polygon fill="#FFFFFF" points="172.572,117.429 177.304,112.698 148.47,112.698 153.201,117.429 		"/>
		<polygon fill="#FFFFFF" points="220.222,112.698 183.995,112.698 179.264,117.429 215.49,117.429 		"/>
		<polygon fill="#FFFFFF" points="210.759,122.161 176.709,122.161 181.44,126.892 206.027,126.892 		"/>
		<polygon fill="#FFFFFF" points="201.296,131.623 186.172,131.623 193.733,139.186 		"/>
		<polygon fill="#FFFFFF" points="217.519,107.966 193.733,84.184 175.62,102.296 181.291,107.966 		"/>
	</g>
</g>
</svg>
