<?xml version="1.0" encoding="utf-8"?>
<!-- Generator: Adobe Illustrator 16.0.0, SVG Export Plug-In . SVG Version: 6.00 Build 0)  -->
<!DOCTYPE svg PUBLIC "-//W3C//DTD SVG 1.1 Tiny//EN" "http://www.w3.org/Graphics/SVG/1.1/DTD/svg11-tiny.dtd">
<svg version="1.1" baseProfile="tiny" id="Layer_1" xmlns="http://www.w3.org/2000/svg" xmlns:xlink="http://www.w3.org/1999/xlink"
	 x="0px" y="0px" width="256px" height="256px" viewBox="0 0 256 256" xml:space="preserve">
<path fill="#FFFFFF" d="M153.077,77.071c1.557-0.564,3.358-0.369,4.801,0.68c0.296,0.216,0.563,0.457,0.802,0.718
	c1.492-0.248,3.082,0.082,4.404,1.043c1.322,0.962,2.127,2.375,2.354,3.872c0.32,0.145,0.637,0.325,0.932,0.541
	c1.551,1.126,2.291,2.95,2.105,4.726c4.514-0.6,10.222,0.453,11.244,1.854c1.016,1.41,0.385,7.125-1.533,11.183
	c1.713,0.392,3.186,1.649,3.77,3.441c0.115,0.348,0.188,0.699,0.228,1.051c1.354,0.677,2.449,1.876,2.957,3.43
	c0.507,1.556,0.329,3.167-0.369,4.511c0.178,0.305,0.325,0.636,0.438,0.985c0.59,1.805,0.131,3.694-1.039,5.016
	c3.943,2.198,7.827,6.286,7.83,7.997c-0.004,1.739-3.854,5.974-7.777,8.123c1.223,1.328,1.715,3.258,1.121,5.093
	c-0.113,0.349-0.26,0.676-0.436,0.983c0.701,1.343,0.884,2.955,0.38,4.508c-0.503,1.554-1.594,2.75-2.948,3.425
	c-0.037,0.351-0.11,0.703-0.225,1.054c-0.592,1.83-2.113,3.101-3.875,3.457c1.871,4.077,2.596,9.573,1.589,10.95
	c-1.018,1.406-6.532,2.545-10.954,2.008c0.209,1.788-0.525,3.634-2.086,4.766c-0.295,0.216-0.607,0.394-0.93,0.538
	c-0.223,1.496-1.021,2.904-2.342,3.864c-1.32,0.958-2.908,1.282-4.403,1.03c-0.237,0.264-0.504,0.504-0.8,0.719
	c-1.578,1.146-3.586,1.264-5.236,0.484c-0.887,4.398-3.541,9.263-5.137,9.787c-1.64,0.521-6.828-1.808-10.1-4.854
	c-0.874,1.595-2.57,2.677-4.521,2.674c-0.366,0-0.725-0.039-1.068-0.112c-1.061,1.077-2.537,1.745-4.171,1.743
	s-3.112-0.674-4.175-1.756c-0.346,0.073-0.704,0.111-1.072,0.11c-2-0.003-3.736-1.145-4.593-2.81
	c-3.292,3.053-8.372,5.451-10.016,4.904c-1.653-0.588-4.358-5.338-5.257-9.634c-1.686,0.891-3.805,0.808-5.454-0.391
	c-0.298-0.217-0.566-0.459-0.802-0.722c-1.495,0.248-3.083-0.08-4.406-1.043c-1.324-0.963-2.128-2.373-2.354-3.871
	c-0.322-0.145-0.634-0.323-0.93-0.54c-1.671-1.214-2.402-3.242-2.044-5.141c-4.412,0.451-9.725-0.57-10.716-1.959
	c-0.979-1.453-0.4-6.82,1.368-10.799c-1.807-0.331-3.38-1.62-3.99-3.487c-0.113-0.351-0.189-0.704-0.227-1.055
	c-1.356-0.679-2.452-1.878-2.958-3.432c-0.506-1.556-0.329-3.166,0.368-4.508c-0.176-0.308-0.323-0.635-0.438-0.984
	c-0.643-1.972-0.036-4.047,1.387-5.37c-3.926-2.202-7.769-6.256-7.771-7.957c-0.008-1.719,3.69-5.791,7.529-7.979
	c-1.195-1.327-1.671-3.235-1.083-5.052c0.114-0.35,0.262-0.679,0.437-0.984c-0.701-1.345-0.884-2.957-0.38-4.511
	c0.502-1.554,1.594-2.75,2.947-3.424c0.037-0.351,0.11-0.702,0.223-1.051c0.625-1.93,2.282-3.236,4.166-3.505
	c-1.915-4.102-2.657-9.708-1.67-11.083c1.012-1.378,6.517-2.534,10.94-2.009c-0.193-1.776,0.544-3.6,2.091-4.722
	c0.297-0.216,0.61-0.396,0.932-0.538c0.222-1.498,1.021-2.907,2.343-3.867c1.32-0.958,2.908-1.283,4.402-1.029
	c0.235-0.262,0.502-0.504,0.798-0.719c1.586-1.149,3.608-1.264,5.263-0.471c0.864-4.428,3.495-9.357,5.125-9.878
	c1.661-0.541,6.855,1.814,10.12,4.875c0.882-1.565,2.562-2.619,4.489-2.617c0.369,0,0.728,0.039,1.073,0.112
	c1.06-1.078,2.536-1.746,4.171-1.743c1.632,0.001,3.111,0.673,4.173,1.755c0.346-0.072,0.703-0.11,1.07-0.11
	c1.996,0.002,3.73,1.14,4.588,2.8c3.301-3.077,8.389-5.521,10.037-4.968C149.445,67.785,152.228,72.702,153.077,77.071z"/>
<path fill-rule="evenodd" d="M156.188,82.891c-0.533,0.735-1.564,0.897-2.305,0.362c-0.736-0.537-0.9-1.569-0.365-2.306
	c0.532-0.735,1.564-0.898,2.303-0.362C156.557,81.122,156.723,82.154,156.188,82.891z M164.681,89.065
	c-0.535,0.735-1.566,0.899-2.304,0.362c-0.738-0.537-0.902-1.569-0.368-2.304c0.536-0.737,1.566-0.899,2.303-0.362
	C165.051,87.298,165.215,88.329,164.681,89.065z M161.549,85.623c-0.76,1.046-2.226,1.276-3.273,0.515
	c-1.049-0.763-1.282-2.23-0.522-3.274c0.759-1.046,2.224-1.277,3.273-0.515C162.074,83.111,162.309,84.576,161.549,85.623z
	 M93.382,169.411c-0.532,0.736-1.563,0.897-2.303,0.362c-0.738-0.537-0.903-1.568-0.367-2.305c0.534-0.736,1.565-0.898,2.303-0.362
	C93.753,167.644,93.918,168.675,93.382,169.411z M101.877,175.586c-0.536,0.736-1.566,0.899-2.304,0.362s-0.903-1.568-0.369-2.305
	c0.536-0.736,1.566-0.897,2.303-0.361C102.246,173.818,102.41,174.852,101.877,175.586z M97.637,173.67
	c-0.76,1.046-2.226,1.276-3.273,0.514c-1.049-0.762-1.283-2.229-0.524-3.274c0.76-1.048,2.226-1.276,3.273-0.514
	C98.162,171.158,98.397,172.622,97.637,173.67z M177.564,108.286c-0.867,0.281-1.797-0.196-2.081-1.062
	c-0.282-0.867,0.191-1.796,1.058-2.077c0.865-0.281,1.797,0.196,2.08,1.062C178.904,107.076,178.431,108.005,177.564,108.286z
	 M180.818,118.262c-0.865,0.281-1.796-0.194-2.08-1.061c-0.281-0.867,0.19-1.796,1.058-2.077c0.864-0.279,1.796,0.195,2.079,1.063
	S181.686,117.981,180.818,118.262z M180.304,113.643c-1.23,0.399-2.554-0.276-2.955-1.51c-0.401-1.23,0.269-2.552,1.501-2.95
	c1.23-0.398,2.553,0.278,2.956,1.508C182.206,111.924,181.535,113.244,180.304,113.643z M75.799,141.226
	c-0.866,0.281-1.796-0.195-2.079-1.061c-0.284-0.866,0.188-1.797,1.056-2.076c0.866-0.28,1.796,0.194,2.08,1.06
	C77.139,140.017,76.665,140.946,75.799,141.226z M79.053,151.204c-0.864,0.279-1.796-0.195-2.079-1.063
	c-0.284-0.866,0.19-1.796,1.056-2.076c0.866-0.28,1.796,0.196,2.08,1.062C80.393,149.994,79.919,150.924,79.053,151.204z
	 M76.745,147.164c-1.231,0.399-2.555-0.276-2.956-1.509c-0.402-1.231,0.27-2.552,1.5-2.951c1.23-0.397,2.555,0.278,2.955,1.509
	C78.647,145.445,77.976,146.767,76.745,147.164z M179.928,141.305c-0.867-0.283-1.342-1.214-1.063-2.08
	c0.281-0.866,1.211-1.339,2.078-1.056c0.867,0.282,1.343,1.214,1.063,2.078C181.725,141.113,180.795,141.587,179.928,141.305z
	 M176.701,151.271c-0.865-0.282-1.342-1.213-1.063-2.079c0.281-0.865,1.211-1.339,2.078-1.057c0.867,0.284,1.342,1.215,1.061,2.08
	C178.498,151.083,177.568,151.556,176.701,151.271z M178.999,147.238c-1.231-0.4-1.907-1.725-1.509-2.953
	c0.398-1.231,1.721-1.902,2.951-1.502c1.232,0.401,1.908,1.725,1.51,2.955S180.232,147.642,178.999,147.238z M78.073,108.084
	c-0.867-0.282-1.342-1.212-1.062-2.079c0.28-0.867,1.209-1.339,2.076-1.056c0.867,0.281,1.342,1.214,1.063,2.079
	C79.87,107.895,78.939,108.368,78.073,108.084z M74.845,118.053c-0.866-0.281-1.342-1.213-1.061-2.08
	c0.281-0.864,1.21-1.338,2.077-1.056c0.867,0.284,1.342,1.214,1.063,2.08C76.643,117.863,75.714,118.335,74.845,118.053z
	 M75.349,113.435c-1.233-0.402-1.908-1.725-1.509-2.956c0.398-1.23,1.718-1.902,2.951-1.5c1.23,0.402,1.907,1.725,1.509,2.954
	C77.901,113.165,76.58,113.837,75.349,113.435z M162.419,169.279c-0.536-0.739-0.376-1.771,0.36-2.305
	c0.738-0.535,1.77-0.369,2.305,0.367c0.537,0.738,0.375,1.77-0.361,2.304C163.986,170.181,162.955,170.016,162.419,169.279z
	 M153.942,175.429c-0.535-0.736-0.374-1.767,0.362-2.303c0.738-0.533,1.769-0.37,2.305,0.369c0.537,0.736,0.375,1.768-0.362,2.303
	C155.512,176.332,154.479,176.168,153.942,175.429z M158.178,173.524c-0.762-1.049-0.533-2.514,0.514-3.273
	c1.045-0.76,2.512-0.526,3.275,0.522c0.761,1.05,0.531,2.514-0.514,3.273C160.405,174.807,158.939,174.573,158.178,173.524z
	 M99.378,82.588c-0.535-0.738-0.375-1.769,0.362-2.303c0.736-0.534,1.767-0.369,2.304,0.368c0.535,0.739,0.375,1.771-0.362,2.304
	C100.946,83.491,99.916,83.326,99.378,82.588z M90.903,88.739c-0.535-0.736-0.375-1.767,0.362-2.303
	c0.736-0.534,1.767-0.369,2.304,0.369c0.535,0.738,0.375,1.769-0.362,2.303C92.471,89.642,91.44,89.479,90.903,88.739z
	 M94.025,85.306c-0.761-1.047-0.531-2.513,0.515-3.273c1.046-0.759,2.512-0.524,3.275,0.524c0.763,1.046,0.531,2.512-0.515,3.272
	C96.254,86.589,94.788,86.355,94.025,85.306z M131.664,181.568c-0.002-0.911,0.736-1.647,1.646-1.646
	c0.911,0.002,1.65,0.739,1.652,1.652c0.001,0.909-0.736,1.647-1.646,1.646C132.404,183.219,131.666,182.479,131.664,181.568z
	 M121.177,181.555c-0.001-0.913,0.736-1.649,1.647-1.647c0.912,0.001,1.65,0.74,1.652,1.651s-0.735,1.649-1.647,1.647
	C121.917,183.205,121.178,182.464,121.177,181.555z M125.73,182.504c-0.001-1.295,1.046-2.343,2.34-2.34
	c1.293,0.002,2.346,1.052,2.347,2.346c0.001,1.295-1.046,2.345-2.34,2.342C126.783,184.85,125.731,183.799,125.73,182.504z
	 M131.516,74.523c-0.002-0.91,0.736-1.647,1.647-1.646c0.911,0.001,1.649,0.741,1.65,1.652c0.001,0.91-0.735,1.646-1.646,1.645
	C132.256,76.172,131.517,75.434,131.516,74.523z M121.028,74.509c-0.001-0.911,0.738-1.649,1.648-1.648
	c0.911,0.001,1.65,0.742,1.652,1.652c0.001,0.911-0.735,1.648-1.648,1.646C121.771,76.158,121.029,75.419,121.028,74.509z
	 M125.579,73.57c-0.001-1.294,1.046-2.341,2.34-2.34c1.295,0.002,2.345,1.053,2.347,2.347s-1.046,2.342-2.34,2.34
	S125.582,74.866,125.579,73.57z M138.432,76.721c1.008-3.116,8.233-6.2,8.244-6.196c0.012,0.004,4.053,6.76,3.047,9.875
	l-0.106,0.299c-3.561-1.635-7.335-2.884-11.271-3.688L138.432,76.721z M138.59,179.356l-0.079-0.262
	c3.933-0.796,7.704-2.036,11.261-3.664l0.097,0.273c1.018,3.117-3.003,9.864-3.016,9.867
	C146.843,185.575,139.606,182.474,138.59,179.356z M166.557,92.716c2.648-1.924,10.316-0.165,10.325-0.157
	c0.005,0.01-0.688,7.842-3.337,9.764l-0.226,0.155c-1.964-3.462-4.312-6.68-6.987-9.593L166.557,92.716z M166.664,163.463
	l-0.223-0.172c2.666-2.905,5.004-6.117,6.957-9.574l0.225,0.156c2.656,1.928,3.375,9.763,3.367,9.771
	C176.984,163.653,169.318,165.392,166.664,163.463z M180.048,134.031l-0.288-0.007c0.218-1.939,0.328-3.912,0.325-5.912
	c-0.003-2.008-0.12-3.99-0.345-5.938l0.289-0.007c3.277,0.004,8.462,5.931,8.462,5.942
	C188.491,128.121,183.325,134.035,180.048,134.031z M117.409,76.651l0.098,0.333c-3.931,0.793-7.7,2.03-11.254,3.655l-0.123-0.336
	c-1.018-3.119,3.005-9.865,3.016-9.868C109.157,70.431,116.392,73.532,117.409,76.651z M117.566,179.286
	c-1.007,3.113-8.234,6.198-8.244,6.194c-0.011-0.003-4.052-6.762-3.046-9.875l0.083-0.234c3.56,1.639,7.338,2.889,11.273,3.694
	L117.566,179.286z M89.334,92.574l0.246,0.19c-2.667,2.904-5.008,6.114-6.962,9.569l-0.244-0.168
	c-2.654-1.93-3.372-9.762-3.367-9.771C79.016,92.384,86.68,90.645,89.334,92.574z M89.442,163.321
	c-2.648,1.923-10.317,0.165-10.325,0.157c-0.006-0.01,0.689-7.842,3.336-9.764l0.208-0.145c1.961,3.466,4.308,6.685,6.981,9.6
	L89.442,163.321z M75.968,133.857c-3.276-0.004-8.459-5.931-8.459-5.943c0-0.009,5.165-5.924,8.442-5.92l0.293,0.008
	c-0.22,1.957-0.332,3.948-0.329,5.965c0.002,1.99,0.115,3.952,0.335,5.883L75.968,133.857z M134.98,163.673
	c-0.582-0.151-0.863-0.518-0.822-1.121c0.021-0.667,0.346-0.97,0.949-0.948c0.839,0.088,1.164,0.563,0.993,1.425
	C135.971,163.589,135.606,163.804,134.98,163.673z M129.111,127.163c0.645-0.021,1.292,0.044,1.939,0.197
	c0.84,0.218,1.293,0.756,1.318,1.618c0,0.194-0.045,0.388-0.109,0.582c-0.149,0.387-0.408,0.689-0.751,0.926
	c-0.282,0.172-0.518,0.408-0.69,0.753c-0.193,0.323-0.344,0.518-0.473,0.625c-0.152,0.085-0.322,0.106-0.582,0.021
	c-0.237-0.065-0.432-0.217-0.518-0.453c-0.109-0.238-0.195-0.431-0.281-0.54c-0.065-0.13-0.194-0.259-0.344-0.388
	c-0.153-0.13-0.347-0.216-0.562-0.281c-0.216-0.065-0.409-0.065-0.582-0.044c-0.193,0.043-0.366,0.086-0.559,0.15
	c-0.173,0.043-0.345,0.128-0.475,0.215s-0.302,0.236-0.474,0.451c-0.172,0.216-0.28,0.389-0.365,0.559
	c-0.065,0.153-0.259,0.303-0.561,0.453c-0.301,0.15-0.754,0.064-1.4-0.26c-0.347-0.174-0.476-0.476-0.369-0.906
	c0.042-0.193,0.129-0.366,0.237-0.538c0.085-0.151,0.237-0.346,0.407-0.559c0.173-0.237,0.496-0.604,1.033-1.163
	c0.495-0.538,1.271-0.925,2.328-1.182C127.883,127.269,128.486,127.184,129.111,127.163z M124.928,125.843
	c-0.193-0.129-0.281-0.301-0.302-0.561c0.043-0.323,0.215-0.56,0.58-0.776c0.131-0.085,0.302-0.149,0.496-0.214
	c0.195-0.042,0.39-0.107,0.583-0.129c0.56-0.107,1.142-0.171,1.788-0.191c0.28-0.021,0.54-0.021,0.798-0.02h0.41l0.904,0.066
	c0.389,0.022,0.646,0.064,0.885,0.151c0.279,0.086,0.432,0.303,0.475,0.582c0,0.107,0.021,0.216,0,0.346
	c-0.064,0.192-0.107,0.257-0.172,0.301c-0.129,0.085-0.259,0.129-0.389,0.15h-0.473l-0.26-0.001h-0.236l-0.885-0.044l-1.055-0.002
	c-0.259,0.022-0.54,0.044-0.862,0.106c-0.259,0.022-0.496,0.064-0.711,0.129c-0.15,0.042-0.259,0.086-0.387,0.107l-0.216,0.064
	c-0.215,0.043-0.279,0.043-0.344,0.065c-0.086,0.021-0.173,0.021-0.259-0.001L124.928,125.843z M120.749,127.367
	c0.109-0.172,0.238-0.344,0.41-0.474c0.365-0.366,0.602-0.516,0.84-0.645c0.192-0.108,0.237-0.129,0.257-0.129
	c0.109-0.044,0.216-0.086,0.323-0.086c0.431-0.085,0.734,0.001,0.928,0.282c0.064,0.107,0.107,0.259,0.064,0.409
	c-0.063,0.216-0.087,0.237-0.087,0.259l-0.214,0.259l-0.581,0.516c-0.15,0.107-0.257,0.215-0.366,0.324l-0.194,0.235l-0.322,0.451
	c-0.065,0.087-0.15,0.173-0.257,0.259c-0.324,0.259-0.668,0.257-1.035,0.021c-0.281-0.195-0.302-0.582-0.087-1.12
	c0.063-0.15,0.15-0.303,0.235-0.431L120.749,127.367z M115.1,140.267c-0.797-0.432-1.487-0.283-2.047,0.405
	c-0.278,0.841-0.149,1.638,0.392,2.436c0.518,0.799,1.122,1.747,1.792,2.826c0.669,1.078,1.295,1.424,1.854,1.058
	c0.581-0.365,0.731-1.075,0.472-2.11c-0.262-1.056-0.522-1.983-0.825-2.78C116.459,141.302,115.898,140.697,115.1,140.267z
	 M109.598,136.056c-0.128-0.021-0.193-0.021-0.213,0.044c-0.044,0.107-0.065,0.173-0.044,0.237c0.066,0.322,0.108,0.451,0.151,0.581
	c0,0.086,0.044,0.172,0.087,0.259c0.064,0.151,0.238,0.431,0.541,0.776c0.129,0.195,0.302,0.345,0.453,0.476
	c0.129,0.086,0.257,0.15,0.41,0.193c0.278,0.087,0.538,0.087,0.753,0.021c0.238-0.063,0.366-0.148,0.41-0.256
	c0.042-0.087,0.063-0.195,0.063-0.281c-0.087-0.301-0.152-0.408-0.259-0.518c-0.172-0.129-0.196-0.151-0.216-0.172
	c-0.388-0.303-0.776-0.562-1.165-0.8l-0.475-0.28C109.815,136.165,109.707,136.122,109.598,136.056z M131.564,94.672
	c-0.063,0.668-0.233,1.185-0.514,1.572l-0.604,0.775c-0.86,1.034-1.678,1.872-2.474,2.496c-0.817,0.646-1.378,1.313-1.7,2.066
	c-0.343,0.754-0.494,1.529-0.493,2.348c0.001,0.799-0.062,1.423-0.212,1.833c-0.323,0.861-0.428,1.766-0.32,2.692
	c0.175,1.314-0.147,2.37-0.987,3.232c-0.172,0.128-0.343,0.235-0.537,0.321c-0.346,0.086-0.691,0.129-1.057,0.086
	c-0.431-0.023-0.84-0.11-1.228-0.261l-0.216-0.065c-0.776-0.173-1.273-0.583-1.553-1.23c-0.196-0.388-0.238-0.819-0.132-1.25
	c0.107-0.496,0.129-0.948,0.085-1.422c-0.066-0.366-0.131-0.669-0.195-0.906c-0.087-0.238-0.218-0.516-0.368-0.819
	c-0.173-0.281-0.453-0.41-0.842-0.368c-0.237,0.043-0.408,0.128-0.494,0.322c-0.043,0.086-0.065,0.151-0.085,0.237
	c0,0.216-0.022,0.453-0.022,0.667l-0.063,0.303c-0.022,0.128-0.065,0.259-0.107,0.388c-0.15,0.279-0.235,0.387-0.322,0.516
	c-0.087,0.129-0.194,0.237-0.302,0.366c-0.257,0.3-0.581,0.537-0.991,0.731c-0.278,0.106-0.538,0.15-0.797,0.149
	c-0.237-0.085-0.453-0.172-0.667-0.281c-0.754-0.453-1.381-0.345-1.896,0.322c-0.388,0.537-0.906,0.796-1.551,0.816l-0.215,0.063
	c-0.108,0.044-0.216,0.065-0.323,0.087c-0.107,0.042-0.216,0.063-0.302,0.107c-0.56,0.494-0.538,0.904-0.085,1.314
	c0.108,0.065,0.217,0.15,0.325,0.237c0.259,0.107,0.388,0.194,0.496,0.281c0.151,0.151,0.281,0.366,0.345,0.604
	c0.043,0.237,0.065,0.451,0.001,0.689c-0.042,0.257-0.194,0.431-0.409,0.516c-0.625,0.259-1.357,0.235-2.198-0.089
	c-0.841-0.325-1.403-0.691-1.684-1.123c-0.259-0.411-0.432-0.776-0.475-1.099c-0.044-0.324,0.106-0.625,0.495-0.862
	c0.365-0.257,0.517-0.538,0.408-0.841c-0.043-0.15-0.107-0.279-0.195-0.387c-0.409-0.303-0.71-0.347-1.012-0.26
	c-0.238,0.064-0.368,0.15-0.475,0.257c-0.129,0.129-0.237,0.279-0.344,0.452c-0.129,0.194-0.387,0.648-0.773,1.357
	c-0.387,0.732-0.515,1.551-0.428,2.478c0.11,0.861,0.262,1.486,0.478,1.854c0.216,0.345,0.497,0.689,0.776,0.97
	c0.129,0.129,0.238,0.259,0.346,0.387c0.15,0.24,0.303,0.455,0.432,0.67c0.215,0.388,0.39,0.798,0.541,1.229
	c0.172,0.538,0.409,1.034,0.713,1.51c0.734,1.165,0.929,2.415,0.651,3.748c-0.043,0.238-0.128,0.453-0.28,0.647
	c-0.708,1.077-0.923,2.24-0.619,3.534c0.454,1.897,0.975,3.232,1.579,3.966c0.603,0.755,1.1,1.272,1.467,1.575
	c0.302,0.236,0.776,0.475,1.423,0.692c0.668,0.151,1.379,0.323,2.07,0.477l0.344,0.064c0.194,0.064,0.388,0.131,0.56,0.216
	c0.173,0.064,0.346,0.131,0.518,0.217c0.216,0.107,0.431,0.26,0.648,0.409l0.538,0.476l0.324,0.346
	c0.109,0.107,0.216,0.216,0.325,0.345c0.107,0.107,0.193,0.217,0.281,0.324l0.409,0.518l0.346,0.475
	c0.044,0.064,0.087,0.129,0.129,0.216l0.563,0.97c0.15,0.28,0.388,0.906,0.648,1.832c0.281,0.948,0.454,1.574,0.541,1.876
	c0.064,0.301,0.195,0.797,0.391,1.488c0.173,0.667,0.606,1.573,1.275,2.694l0.325,0.604c0.151,0.303,0.301,0.539,0.453,0.755
	c0.172,0.215,0.346,0.409,0.541,0.583c0.172,0.173,0.322,0.303,0.452,0.366c0.107,0.088,0.346,0.173,0.712,0.282
	c0.344,0.129,0.625,0.173,0.819,0.151c0.194-0.021,0.41-0.065,0.667-0.128c0.259-0.063,0.625-0.28,1.1-0.645
	c0.083-0.088,0.192-0.172,0.301-0.236c0.213-0.152,0.537-0.389,0.945-0.731c0.431-0.344,0.905-0.71,1.443-1.099
	c0.28-0.192,0.366-0.257,0.452-0.301l0.43-0.257c0.281-0.173,0.582-0.323,0.885-0.473c0.258-0.13,0.518-0.237,0.754-0.366
	l0.73-0.321l0.646-0.259c0.258-0.064,0.496-0.149,0.754-0.215l0.539-0.128l0.236-0.064l0.518-0.063
	c0.064-0.021,0.15-0.021,0.236-0.043h0.217c0.58-0.106,1.076,0.046,1.508,0.455c0.088,0.064,0.174,0.151,0.239,0.236
	c0.366,0.497,0.56,1.058,0.604,1.684c0,0.128,0,0.278,0.021,0.409c0,0.365-0.02,0.731-0.041,1.098
	c-0.043,0.409-0.128,0.884-0.256,1.444c-0.172,0.668-0.365,1.335-0.6,2.046c-0.26,0.689-0.539,1.356-0.903,1.981
	c-0.345,0.646-0.667,1.14-0.988,1.528l-0.561,0.688l-0.345,0.366c-0.215,0.214-0.451,0.429-0.688,0.623
	c-0.174,0.151-0.389,0.302-0.669,0.495c-0.452,0.322-0.925,0.581-1.442,0.752c-0.302,0.087-0.646,0.171-1.034,0.215
	c-0.409,0.063-0.731,0.084-1.011,0.063c-0.281-0.002-0.498-0.022-0.648-0.046c-0.151-0.021-0.301-0.064-0.454-0.107
	c-0.516-0.172-0.862-0.324-1.229-0.519l-0.322-0.238c-0.044-0.063-0.109-0.128-0.173-0.215c-0.215-0.28-0.346-0.604-0.368-0.971
	c-0.044-0.495,0.063-0.926,0.3-1.291c0.128-0.195,0.216-0.259,0.281-0.345c0.106-0.086,0.213-0.174,0.322-0.237
	c0.107-0.064,0.237-0.107,0.344-0.151l0.259-0.063c0.107,0.002,0.215,0.002,0.344-0.021l0.54,0.065
	c0.107,0.044,0.216,0.087,0.301,0.151c0.107,0.044,0.216,0.109,0.324,0.174l0.281,0.215c0.365,0.238,0.539,0.324,0.732,0.346
	c0.129,0.001,0.26,0.001,0.41,0.021c0.365-0.021,0.775-0.105,1.249-0.256c0.323-0.194,0.581-0.365,0.732-0.517
	c0.602-0.602,1.118-1.291,1.549-2.023c0.259-0.388,0.474-0.818,0.644-1.248c0.13-0.323,0.237-0.646,0.365-1.012l0.215-0.969
	c0.129-0.476,0.172-0.884,0.172-1.207c-0.002-0.647-0.262-1.058-0.822-1.209c-0.086-0.021-0.172-0.043-0.28-0.043
	c-0.128-0.021-0.257-0.021-0.366-0.021l-0.346,0.063c-0.472,0.13-0.861,0.26-1.204,0.43c-0.346,0.173-0.667,0.345-0.991,0.537
	c-0.451,0.238-0.754,0.409-1.056,0.625l-0.538,0.364l-0.581,0.389c-0.149,0.105-0.259,0.171-0.323,0.257l-0.257,0.194
	c-0.603,0.493-0.969,0.839-1.315,1.205c-0.15,0.149-0.343,0.408-0.58,0.774c-0.151,0.237-0.216,0.409-0.281,0.581
	c-0.085,0.281-0.106,0.366-0.148,0.495l-0.128,0.387c-0.065,0.131-0.109,0.261-0.173,0.39l-0.128,0.237
	c-0.259,0.364-0.603,0.581-1.056,0.645c-0.301-0.022-0.581-0.087-0.841-0.24c-0.107-0.064-0.172-0.128-0.257-0.172
	c-0.088-0.064-0.153-0.107-0.218-0.172l-0.431-0.41c-0.085-0.087-0.172-0.172-0.238-0.281l-0.194-0.257l-0.453-0.627
	c-0.562-0.949-1.145-1.445-1.855-1.662c-0.711-0.217-1.423-0.433-2.113-0.627c-0.71-0.195-1.553-0.542-2.523-1.017
	c-0.991-0.497-1.812-1.252-2.503-2.224c-0.691-0.991-1.446-2.027-2.224-3.127c-0.798-1.121-2.309-2.114-4.508-3.001
	c-0.194-0.087-0.367-0.195-0.517-0.325c-0.778-0.711-1.188-1.574-1.211-2.586c0-0.259,0.022-0.519,0.042-0.797
	c0-0.153,0.021-0.323,0.021-0.496c-0.129-0.862-0.562-1.294-1.316-1.489c-1.51-0.369-2.565-0.865-3.192-1.405l-0.431-0.366
	c-0.821-0.692-1.21-1.576-1.167-2.609c0.021-0.174-0.022-0.302-0.131-0.41c-0.928-1.186-1.964-2.329-3.064-3.43
	c-0.325-0.302-0.562-0.667-0.713-1.057c-0.519-1.401-0.413-2.694,0.318-3.92l0.516-0.732L96,121.471
	c0.153-0.301,0.237-0.732,0.257-1.27c0.021-0.561,0.021-1.056-0.066-1.509c-0.153-0.884,0.018-2.134,0.49-3.771
	c0.471-1.614,0.988-2.864,1.525-3.683c0.559-0.838,1.312-2.023,2.28-3.507c0.431-0.669,0.86-1.208,1.269-1.615
	c0.453-0.431,0.99-0.71,1.615-0.86c1.875-0.472,3.535,0.005,4.915,1.429c0.151,0.151,0.303,0.238,0.41,0.281
	c0.172,0.021,0.324,0.022,0.518,0c0.539-0.041,0.882-0.3,1.077-0.731c0.172-0.409,0.257-0.903,0.256-1.464
	c-0.022-0.54,0.021-0.969,0.042-1.292l0.129-0.862c0.106-0.538,0.256-1.078,0.471-1.572c1.032-1.853,2.388-3.445,4.088-4.757
	c1.744-1.354,3.705-2.021,5.858-1.974l2.112,0.002c0.841,0.044,1.66-0.019,2.479-0.169c0.453-0.063,0.84-0.279,1.185-0.622
	c0.366-0.366,0.818-0.667,1.291-0.882c0.215-0.064,0.452-0.15,0.71-0.194c0.689-0.171,1.315,0.001,1.897,0.478
	C131.392,93.422,131.65,93.982,131.564,94.672z M141.959,161.011c-0.086,0.452-0.302,0.861-0.688,1.205
	c-0.257,0.302-0.538,0.539-0.839,0.732l-0.56,0.322c-0.28,0.128-0.712,0.214-1.271,0.258c-0.194-0.022-0.388-0.046-0.583-0.131
	c-0.257-0.087-0.453-0.261-0.582-0.475c-0.086-0.194-0.086-0.345-0.043-0.496c0.064-0.259,0.236-0.431,0.473-0.537
	c0.151-0.064,0.324-0.129,0.496-0.173l0.216-0.064c0.236-0.065,0.409-0.106,0.495-0.171c0.451-0.323,0.711-0.561,0.947-0.84
	c0.041-0.085,0.105-0.172,0.17-0.259c0.195-0.258,0.432-0.407,0.711-0.494c0.238-0.043,0.453-0.021,0.646,0.087
	c0.368,0.238,0.498,0.497,0.433,0.841L141.959,161.011z M146.234,151.449c0.496-0.085,0.775,0.066,0.884,0.454l0.064,0.279
	c-0.021,0.41-0.063,0.69-0.171,1.014c-0.17,0.516-0.258,0.86-0.3,0.991c-0.022,0.129-0.257,0.666-0.688,1.614
	c-0.3,0.689-0.623,1.271-0.924,1.745c-0.236,0.408-0.43,0.688-0.666,0.968c-0.107,0.13-0.216,0.215-0.365,0.302
	c-0.26,0.194-0.539,0.215-0.82,0.105c-0.41-0.193-0.604-0.518-0.539-0.99c0.043-0.346,0.148-0.691,0.322-0.991l0.666-1.099
	c0.15-0.302,0.215-0.41,0.279-0.517c0.279-0.603,0.58-1.25,0.838-1.896c0.129-0.301,0.236-0.624,0.344-0.926
	c0.107-0.215,0.129-0.279,0.172-0.345c0.15-0.236,0.322-0.41,0.494-0.559C145.953,151.536,146.083,151.472,146.234,151.449z
	 M147.197,146.689c0.042-0.172,0.086-0.346,0.15-0.54c0.129-0.257,0.215-0.516,0.256-0.797l0.022-0.257l0.064-0.454
	c0.042-0.409,0.214-0.688,0.517-0.818c0.279-0.128,0.559-0.149,0.817-0.041c0.41,0.13,0.626,0.41,0.626,0.861
	c0.022,0.153,0.022,0.304,0.002,0.455c0,0.214-0.022,0.321-0.022,0.431c-0.041,0.193-0.064,0.387-0.085,0.581
	c-0.021,0.063-0.041,0.128-0.041,0.216c-0.023,0.129-0.064,0.279-0.109,0.408c-0.064,0.194-0.15,0.409-0.258,0.625
	c-0.042,0.13-0.063,0.173-0.107,0.215l-0.129,0.217c-0.172,0.149-0.236,0.17-0.277,0.214c-0.174,0.021-0.238,0.043-0.303,0.043
	c-0.129,0.022-0.237,0-0.303,0c-0.301-0.108-0.41-0.173-0.517-0.26c-0.216-0.217-0.304-0.453-0.347-0.712
	C147.154,146.926,147.154,146.796,147.197,146.689z M139.078,146.728c-0.117-0.021-0.218-0.061-0.314-0.139
	c-0.217-0.178-0.375-0.413-0.455-0.689l-0.119-0.375c-0.038-0.118-0.078-0.236-0.117-0.314c-0.06-0.098-0.117-0.177-0.178-0.215
	c-0.197-0.179-0.237-0.198-0.297-0.238l-0.214-0.1c-0.08-0.019-0.159-0.058-0.237-0.058c-0.08-0.021-0.158-0.04-0.236-0.04
	c-0.275-0.041-0.551-0.041-0.787-0.001c-0.119-0.021-0.197-0.021-0.256-0.04c-0.453-0.118-0.67-0.376-0.69-0.789
	c-0.001-0.354,0.155-0.629,0.452-0.825c0.098-0.04,0.234-0.098,0.451-0.117c0.216-0.04,0.434-0.06,0.67-0.04
	c0.236,0.021,0.492,0.061,0.787,0.12c1.044,0.337,1.695,0.888,2.107,1.735c0.158,0.335,0.219,0.512,0.219,0.688
	c0.02,0.139,0.02,0.257,0.041,0.394c0.02,0.474-0.139,0.827-0.492,1.043C139.314,146.768,139.196,146.768,139.078,146.728z
	 M142.758,115.136c-0.432,0.237-0.517,0.688-0.258,1.357c0.26,0.669,1.037,1.38,2.31,2.136c0.452,0.26,0.904,0.605,1.358,1.015
	l0.389,0.325c0.432,0.496,0.756,1.1,0.908,1.81c0.217,0.496,0.474,0.583,0.797,0.303l0.302-0.301
	c0.085-0.128,0.172-0.257,0.235-0.409c0.389-0.754,0.604-1.551,0.645-2.369c0-0.107,0.021-0.216,0.021-0.301
	c0.041-0.863-0.306-1.51-1.06-1.919c-0.905-0.541-1.812-0.973-2.718-1.32c-0.172-0.064-0.582-0.192-1.25-0.388
	C143.747,114.857,143.188,114.879,142.758,115.136z M143.146,100.635c0.238,0.346,0.582,0.841,1.015,1.49l0.323,0.473
	c0.475,0.712,0.93,1.381,1.383,2.006c0.453,0.583,0.929,1.079,1.446,1.447c0.495,0.388,1.013,0.711,1.553,1.014
	c0.518,0.303,1.122,0.562,1.79,0.82c0.345,0.109,0.668,0.218,0.992,0.347c3.255,1.405,5.996,3.563,8.154,6.477
	c0.26,0.409,0.496,0.839,0.67,1.314c1.08,2.674,1.063,5.217-0.076,7.606c-0.257,0.582-0.58,1.143-0.967,1.657
	c-0.236,0.344-0.539,0.667-0.904,0.948c-0.15,0.129-0.324,0.235-0.494,0.343c-0.194,0.129-0.409,0.259-0.625,0.388
	c-0.215,0.171-0.474,0.387-0.754,0.646c-0.58,0.516-0.989,1.053-1.291,1.634c-0.257,0.582-0.43,0.906-0.43,0.948
	c-0.021,0.087-0.064,0.172-0.107,0.259c-0.127,0.431-0.279,0.84-0.429,1.249c-0.085,0.236-0.149,0.452-0.215,0.688
	c-0.128,0.604-0.233,1.079-0.343,1.573c-0.063,0.324-0.128,0.647-0.235,0.971c-0.064,0.15-0.107,0.322-0.192,0.474l-0.322,0.431
	c-0.152,0.15-0.303,0.258-0.453,0.365l-0.473,0.193c-0.13,0.042-0.26,0.065-0.389,0.086c-0.754-0.002-1.381-0.238-1.939-0.735
	c-0.218-0.195-0.39-0.41-0.541-0.669c-0.324-0.562-0.541-1.143-0.648-1.769c-0.066-0.279-0.109-0.538-0.174-0.797
	c-0.281-1.1-0.586-2.178-0.889-3.256l-0.238-0.709c-0.064-0.13-0.129-0.259-0.193-0.411c-0.324-0.711-0.973-1.251-1.898-1.597
	c-0.949-0.347-1.897-0.649-2.848-0.932c-0.946-0.281-1.897-0.863-2.868-1.771c-1.058-0.972-1.597-2.199-1.599-3.708
	c-0.025-1.335-0.606-2.328-1.793-2.932c-0.646-0.219-1.316-0.369-1.984-0.457c-0.107-0.021-0.193-0.021-0.278-0.022
	c-0.691-0.044-1.403-0.022-2.091,0.062c-0.54,0.021-0.971-0.044-1.271-0.216c-0.303-0.196-0.606-0.433-0.863-0.713
	c-0.433-0.56-0.584-1.185-0.498-1.917c0.042-0.475,0.236-0.797,0.623-1.013c0.128-0.085,0.279-0.15,0.431-0.192l0.989-0.15
	c0.238-0.065,0.453-0.106,0.713-0.193c0.602-0.194,0.859-0.688,0.73-1.529c-0.131-0.819-0.283-1.379-0.412-1.681
	c-0.151-0.281-0.453-0.497-0.885-0.648c-0.453-0.151-0.732-0.022-0.819,0.388c-0.106,0.408-0.192,0.904-0.255,1.507
	c-0.064,0.581-0.388,0.775-0.971,0.559c-0.582-0.216-0.97-0.604-1.186-1.166c-0.238-0.561-0.325-1.099-0.282-1.573
	c0.041-0.494,0.15-0.84,0.279-1.034c0.15-0.194,0.235-0.301,0.279-0.344c0.107-0.087,0.237-0.172,0.366-0.257
	c0.666-0.452,1.398-0.559,2.219-0.3c0.799,0.239,1.271,0.11,1.4-0.341c0.064-0.301,0.17-0.54,0.323-0.776
	c0.085-0.129,0.192-0.257,0.3-0.387c0.302-0.302,0.904-0.516,1.83-0.665c0.905-0.151,1.465-0.474,1.658-0.969
	c0.216-0.517,0.537-0.99,0.99-1.399c0.193-0.194,0.344-0.366,0.494-0.581c0.173-0.28,0.322-0.603,0.408-0.969
	c0.107-0.518,0.107-0.906-0.044-1.207c-0.108-0.215-0.261-0.41-0.454-0.561c-0.172-0.151-0.366-0.259-0.581-0.347
	c-0.13-0.064-0.259-0.129-0.368-0.193c-0.129-0.108-0.236-0.216-0.303-0.345c-0.064-0.087-0.085-0.172-0.129-0.281
	c0-0.065-0.021-0.151-0.021-0.216c-0.088-0.56,0.063-0.926,0.429-1.119c0.366-0.172,0.668-0.237,0.929-0.172l0.301,0.088
	c0.603,0.237,1.143,0.519,1.574,0.865C140.836,97.637,141.979,98.931,143.146,100.635z M78.519,127.972
	c-0.037-27.328,22.084-49.449,49.412-49.411c27.327,0.037,49.511,22.221,49.549,49.548c0.037,27.327-22.086,49.449-49.413,49.412
	C100.74,177.482,78.558,155.299,78.519,127.972z M83.466,127.979c0.034,24.595,20,44.559,44.594,44.594
	c24.596,0.034,44.506-19.876,44.472-44.47c-0.034-24.594-19.999-44.562-44.594-44.594C103.343,83.474,83.432,103.385,83.466,127.979
	z"/>
</svg>
