<?xml version="1.0" encoding="utf-8"?>
<!-- Generator: Adobe Illustrator 16.0.0, SVG Export Plug-In . SVG Version: 6.00 Build 0)  -->
<!DOCTYPE svg PUBLIC "-//W3C//DTD SVG 1.1 Tiny//EN" "http://www.w3.org/Graphics/SVG/1.1/DTD/svg11-tiny.dtd">
<svg version="1.1" baseProfile="tiny" id="Layer_1" xmlns="http://www.w3.org/2000/svg" xmlns:xlink="http://www.w3.org/1999/xlink"
	 x="0px" y="0px" width="256px" height="256px" viewBox="0 0 256 256" xml:space="preserve">
<rect x="98" y="160" transform="matrix(0.7071 -0.7071 0.7071 0.7071 -77.6884 156.4436)" display="none" fill="#FF0000" width="104" height="24"/>
<path d="M80.016,165.344l-36.748-36.748l8.861-8.861c3.859-3.86,6.758-5.881,8.695-6.066c1.938-0.184,4.563,1.381,7.877,4.696
	l3.801,3.801c2.668,2.667,4.188,4.711,4.563,6.132c0.376,1.423,0.122,3.06-0.763,4.917c1.709-0.943,3.274-1.248,4.696-0.918
	c1.421,0.332,3.054,1.418,4.895,3.26l11.954,11.955l-7.8,7.8L77.43,142.693c-0.766-0.766-1.406-1.156-1.922-1.171
	s-1.12,0.325-1.813,1.017l-0.463,0.465l14.562,14.562L80.016,165.344z M66.249,131.513l-5.038-5.038
	c-0.913-0.913-1.576-1.37-1.989-1.37c-0.411,0-0.935,0.317-1.568,0.95l-0.685,0.685l9.413,9.414
	c0.089-0.089,0.221-0.206,0.397-0.354c0.177-0.146,0.302-0.258,0.375-0.331c0.59-0.59,0.891-1.09,0.906-1.504
	c0.016-0.412-0.258-0.898-0.817-1.458L66.249,131.513z"/>
<path d="M99.969,145.391l-32.04-41.455l9.413-9.413l41.498,31.997l-7.336,7.336l-7.844-6.652l-3.116,3.116l6.651,7.845
	L99.969,145.391z M94.975,123.956l2.365-2.365l-15.336-12.993L94.975,123.956z"/>
<path d="M93.297,78.568c4.006-4.006,6.949-6.058,8.826-6.154c1.879-0.095,4.446,1.485,7.701,4.74l21.59,21.589
	c3.329,3.33,4.928,5.931,4.795,7.8c-0.133,1.871-2.174,4.781-6.121,8.729l-8.905,8.905L84.436,87.429L93.297,78.568z M98.091,85.528
	l24.948,24.948c0.088-0.088,0.229-0.213,0.42-0.375c0.191-0.162,0.324-0.28,0.397-0.354c0.56-0.56,0.851-1.042,0.873-1.447
	c0.022-0.405-0.218-0.858-0.718-1.359l-0.951-0.95l-20.572-20.573c-0.986-0.987-1.694-1.487-2.121-1.503
	c-0.428-0.014-0.958,0.295-1.592,0.928L98.091,85.528z"/>
<path d="M142.131,103.229l-36.748-36.748l7.734-7.734l36.748,36.748L142.131,103.229z"/>
<path d="M123.636,62.989c-3.417-3.417-5.038-6.04-4.862-7.867c0.178-1.826,2.217-4.691,6.121-8.596
	c3.992-3.992,6.924-6.04,8.795-6.143c1.871-0.103,4.457,1.496,7.756,4.795l21.943,21.942c3.373,3.374,4.996,6,4.872,7.877
	c-0.125,1.879-2.154,4.784-6.088,8.718c-3.978,3.978-6.905,6.008-8.784,6.087c-1.878,0.082-4.48-1.543-7.811-4.873L123.636,62.989z
	 M131.635,55.432l21.5,21.5c0.693,0.693,1.26,1.091,1.702,1.193c0.441,0.104,0.868-0.051,1.281-0.464
	c0.368-0.368,0.548-0.748,0.542-1.138c-0.008-0.39-0.188-0.762-0.542-1.116l-0.729-0.729l-21.5-21.5
	c-0.707-0.707-1.274-1.097-1.701-1.171c-0.428-0.073-0.885,0.132-1.371,0.618c-0.324,0.325-0.471,0.671-0.441,1.039
	c0.029,0.369,0.221,0.729,0.574,1.083L131.635,55.432z"/>
<path d="M102.086,189.094l-18.373-18.373l4.43-4.432c1.93-1.929,3.381-2.939,4.348-3.033c0.969-0.092,2.282,0.691,3.939,2.349
	l1.922,1.923c0.848,0.847,1.353,1.628,1.514,2.342c0.163,0.715,0.004,1.444-0.475,2.188c0.906-0.404,1.703-0.518,2.393-0.336
	c0.689,0.18,1.493,0.73,2.414,1.65l2.982,2.984c1.673,1.672,2.461,2.994,2.364,3.966c-0.096,0.973-1.098,2.413-3.005,4.32
	L102.086,189.094z M94.64,171.615l-2.044-2.044c-0.383-0.383-0.684-0.576-0.9-0.58c-0.218-0.004-0.496,0.164-0.834,0.503
	l-0.299,0.298l3.846,3.845c0.036-0.036,0.101-0.09,0.193-0.16c0.092-0.07,0.152-0.119,0.182-0.148
	c0.28-0.28,0.434-0.529,0.459-0.746s-0.064-0.429-0.271-0.635L94.64,171.615z M103.213,180.189l-3.469-3.47
	c-0.383-0.383-0.684-0.576-0.9-0.58c-0.218-0.004-0.496,0.164-0.834,0.503l-0.299,0.298l5.281,5.281
	c0.037-0.036,0.1-0.091,0.188-0.165c0.089-0.074,0.148-0.125,0.178-0.155c0.279-0.28,0.435-0.526,0.464-0.74
	c0.03-0.214-0.063-0.427-0.276-0.641L103.213,180.189z"/>
<path d="M112.561,178.62l-18.374-18.374l4.431-4.431c1.93-1.929,3.379-2.94,4.348-3.033c0.969-0.092,2.281,0.69,3.939,2.349l1.9,1.9
	c1.333,1.333,2.094,2.355,2.281,3.065c0.188,0.711,0.061,1.53-0.381,2.458c0.854-0.471,1.637-0.623,2.348-0.459
	c0.71,0.167,1.526,0.71,2.447,1.631l5.977,5.977l-3.9,3.9l-6.309-6.309c-0.383-0.383-0.703-0.578-0.961-0.586
	c-0.258-0.006-0.561,0.162-0.906,0.509l-0.232,0.231l7.281,7.281L112.561,178.62z M105.678,161.705l-2.52-2.52
	c-0.457-0.457-0.788-0.685-0.994-0.686c-0.207,0.001-0.469,0.159-0.785,0.475l-0.342,0.344l4.707,4.707
	c0.044-0.045,0.109-0.104,0.198-0.178c0.089-0.072,0.151-0.129,0.188-0.166c0.293-0.293,0.445-0.545,0.452-0.751
	s-0.128-0.448-0.409-0.729L105.678,161.705z"/>
<path d="M122.537,168.643l-16.02-20.727l4.706-4.707l20.749,15.998l-3.668,3.668l-3.922-3.325l-1.559,1.558l3.326,3.923
	L122.537,168.643z M120.04,157.926l1.183-1.183l-7.668-6.496L120.04,157.926z"/>
<path d="M132.504,158.678l-3.193-3.193l-8.795-15.27l-2.828,2.828l-3.149-3.148l6.905-6.905l3.148,3.149l8.773,15.291l3.281-3.282
	l3.193,3.193L132.504,158.678z"/>
<path d="M141.354,149.827l-18.374-18.374l6.176-6.176l2.961,2.961l-2.31,2.309l3.823,3.823l2.31-2.31l2.994,2.994l-2.31,2.31
	l5.612,5.612l2.31-2.309l2.983,2.983L141.354,149.827z"/>
<path d="M149.109,142.071l-18.374-18.374l3.612-3.613l11.348,7.48l-9.414-9.414l3.371-3.37l18.373,18.374l-3.623,3.625l-10.95-7.061
	l9.005,9.005L149.109,142.071z"/>
<path d="M164.876,126.305l-18.374-18.374l4.43-4.43c1.93-1.93,3.381-2.94,4.348-3.033c0.969-0.092,2.282,0.691,3.939,2.348
	l1.922,1.922c0.848,0.847,1.353,1.628,1.515,2.342c0.162,0.715,0.003,1.444-0.476,2.188c0.906-0.404,1.703-0.517,2.393-0.336
	s1.493,0.731,2.414,1.651l2.982,2.983c1.673,1.672,2.461,2.995,2.365,3.966c-0.097,0.973-1.098,2.413-3.006,4.32L164.876,126.305z
	 M157.43,108.826l-2.045-2.044c-0.383-0.383-0.684-0.576-0.9-0.58c-0.218-0.004-0.496,0.164-0.834,0.502l-0.299,0.298l3.846,3.845
	c0.037-0.037,0.101-0.09,0.193-0.16c0.092-0.07,0.152-0.119,0.182-0.149c0.28-0.28,0.434-0.528,0.459-0.746
	c0.025-0.217-0.064-0.429-0.271-0.635L157.43,108.826z M166.003,117.399l-3.47-3.469c-0.383-0.383-0.684-0.576-0.9-0.58
	c-0.218-0.004-0.496,0.164-0.834,0.502l-0.299,0.298l5.281,5.281c0.037-0.037,0.1-0.091,0.188-0.166
	c0.088-0.073,0.147-0.125,0.177-0.154c0.279-0.28,0.435-0.526,0.464-0.74c0.03-0.213-0.062-0.427-0.276-0.641L166.003,117.399z"/>
<path d="M175.35,115.831l-18.373-18.374l6.176-6.176l2.961,2.961l-2.31,2.309l3.823,3.823l2.309-2.309l2.994,2.994l-2.309,2.309
	l5.612,5.613l2.31-2.309l2.982,2.983L175.35,115.831z"/>
<path d="M182.609,108.572l-16.021-20.728l4.707-4.707l20.75,15.999l-3.669,3.668l-3.923-3.326l-1.557,1.558l3.325,3.922
	L182.609,108.572z M180.111,97.854l1.182-1.182l-7.667-6.497L180.111,97.854z"/>
<path d="M194.077,97.104L178.73,81.757l-1.988,1.989l-3.027-3.027l7.844-7.845l3.027,3.027l-1.988,1.989l15.347,15.347
	L194.077,97.104z"/>
<path d="M193.569,82.851l3.899-3.9l3.602,3.602c0.325,0.325,0.602,0.512,0.83,0.563c0.229,0.052,0.448-0.029,0.662-0.243
	c0.17-0.169,0.256-0.363,0.26-0.581c0.004-0.216-0.075-0.407-0.237-0.569l-0.343-0.343l-2.74-2.74
	c-0.367-0.368-0.688-0.583-0.955-0.646c-0.27-0.062-0.637-0.023-1.1,0.116l-4.055,1.16c-0.929,0.265-1.783,0.276-2.564,0.033
	c-0.78-0.243-1.594-0.789-2.441-1.636l-2.143-2.144c-1.643-1.642-2.435-2.931-2.376-3.867c0.06-0.935,1.071-2.386,3.038-4.353
	c1.85-1.849,3.245-2.854,4.188-3.016c0.943-0.162,1.912,0.254,2.906,1.249l1.115,1.116l2.74,2.74l-3.822,3.823l-2.63-2.629
	c-0.36-0.36-0.646-0.558-0.856-0.591c-0.209-0.033-0.43,0.064-0.657,0.292c-0.192,0.192-0.264,0.396-0.216,0.614
	s0.242,0.496,0.58,0.834L192,73.481c0.354,0.354,0.666,0.564,0.939,0.629c0.272,0.067,0.641,0.031,1.104-0.11l3.69-1.105
	c1.002-0.309,1.878-0.364,2.629-0.166c0.752,0.199,1.536,0.708,2.354,1.525l4.188,4.188c0.627,0.626,1.057,1.127,1.293,1.502
	c0.235,0.376,0.376,0.762,0.42,1.16c0.088,0.561-0.05,1.148-0.414,1.762c-0.365,0.615-1.236,1.611-2.613,2.988
	c-2.012,2.011-3.492,3.038-4.447,3.077c-0.953,0.041-2.24-0.749-3.861-2.37L193.569,82.851z"/>
<path d="M149.286,187.714l-18.374-18.374l3.867-3.866l15.391,15.391l2.309-2.31l2.983,2.983L149.286,187.714z"/>
<path d="M156.932,180.068l-18.373-18.373l3.867-3.867l18.373,18.373L156.932,180.068z"/>
<path d="M154.954,167.285l3.899-3.9l3.603,3.603c0.323,0.323,0.601,0.511,0.829,0.563c0.229,0.051,0.449-0.03,0.662-0.244
	c0.17-0.168,0.256-0.361,0.26-0.579s-0.075-0.407-0.237-0.569l-0.343-0.342l-2.74-2.74c-0.367-0.369-0.687-0.584-0.955-0.646
	c-0.27-0.063-0.635-0.023-1.1,0.115l-4.055,1.16c-0.928,0.266-1.783,0.276-2.563,0.033c-0.781-0.242-1.596-0.787-2.442-1.635
	l-2.144-2.144c-1.643-1.643-2.434-2.931-2.375-3.866s1.07-2.387,3.037-4.354c1.85-1.85,3.246-2.854,4.188-3.017
	c0.942-0.162,1.911,0.254,2.905,1.249l1.116,1.115l2.74,2.74l-3.823,3.822l-2.629-2.629c-0.361-0.361-0.646-0.559-0.857-0.592
	c-0.209-0.033-0.428,0.064-0.656,0.293c-0.191,0.191-0.264,0.396-0.216,0.613c0.048,0.218,0.241,0.496,0.579,0.834l1.746,1.746
	c0.354,0.354,0.668,0.564,0.939,0.63s0.641,0.028,1.105-0.11l3.689-1.105c1.002-0.309,1.879-0.363,2.63-0.165
	s1.536,0.706,2.354,1.524l4.188,4.188c0.626,0.626,1.056,1.127,1.292,1.502c0.236,0.376,0.376,0.763,0.42,1.16
	c0.088,0.561-0.049,1.148-0.414,1.763s-1.235,1.611-2.613,2.989c-2.01,2.01-3.493,3.036-4.447,3.076
	c-0.953,0.041-2.24-0.749-3.861-2.369L154.954,167.285z"/>
<path d="M174.268,162.732l-15.347-15.346l-1.989,1.988l-3.027-3.027l7.845-7.844l3.027,3.027l-1.989,1.988l15.347,15.347
	L174.268,162.732z"/>
<path d="M181.283,155.717l-18.374-18.373l6.177-6.176l2.961,2.961l-2.31,2.309l3.823,3.822l2.309-2.309l2.994,2.994l-2.309,2.309
	l5.612,5.613l2.31-2.309l2.982,2.982L181.283,155.717z"/>
<path d="M189.039,147.961l-18.373-18.373l3.612-3.613l11.347,7.479l-9.413-9.413l3.37-3.37l18.373,18.374l-3.624,3.624l-10.948-7.06
	l9.004,9.004L189.039,147.961z"/>
<rect x="44" y="188" transform="matrix(0.7071 0.7071 -0.7071 0.7071 169.5391 -9.3036)" display="none" fill="#FFFF00" width="104" height="24"/>
<circle cx="125" cy="193" r="13"/>
</svg>
