<?xml version="1.0" encoding="utf-8"?>
<!-- Generator: Adobe Illustrator 16.0.0, SVG Export Plug-In . SVG Version: 6.00 Build 0)  -->
<!DOCTYPE svg PUBLIC "-//W3C//DTD SVG 1.1 Tiny//EN" "http://www.w3.org/Graphics/SVG/1.1/DTD/svg11-tiny.dtd">
<svg version="1.1" baseProfile="tiny" id="Layer_1" xmlns="http://www.w3.org/2000/svg" xmlns:xlink="http://www.w3.org/1999/xlink"
	 x="0px" y="0px" width="256px" height="256px" viewBox="0 0 256 256" xml:space="preserve">
<g>
	<g>
		<path fill="#FFFFFF" d="M205.884,159.821c-1.638-0.195-1.638-0.186-1.157,1.538c-0.245,0.506-0.997,0.209-1.211,0.763
			c0.741,0.434,1.395,0.661,1.412-0.601c0.225-0.594,1.03-0.865,0.959-1.621c-0.002-0.007-0.003-0.014-0.004-0.016
			C205.885,159.895,205.883,159.813,205.884,159.821z"/>
		<path fill="#FFFFFF" d="M201.67,159.336c-0.227-0.017-0.455,0.085-0.356,0.316c0.155,0.374,0.073,0.957,0.684,0.997
			c0.146,0.01,0.305-0.164,0.565-0.317C201.827,160.284,202.318,159.388,201.67,159.336z"/>
		<path fill="#FFFFFF" d="M199.776,146.051c-0.206,0.512,0.033,0.931,0.315,1.333c0.022,0.032,0.059,0.056,0.087,0.081
			c0.212,0.313,0.09,0.84,0.665,0.923c0.193,0.029,0.196-0.072,0.196-0.147c0.005-0.387-0.142-0.712-0.463-0.939
			c-0.053-0.041-0.149-0.021-0.226-0.031c-0.11-0.441,0.196-0.981-0.306-1.323C199.999,145.912,199.805,145.986,199.776,146.051z"/>
		<path fill="#FFFFFF" d="M200.999,148.567c0.218,0.912,0.509,1.432,1.318,1.781C202.174,149.548,201.884,149.03,200.999,148.567z"
			/>
		<path fill="#FFFFFF" d="M202.332,131.539c0.207,0.074,0.658-0.429,0.515-0.551c-0.542-0.448-0.072-1.346-0.792-1.653
			c-0.564,0.25-1.225,0.587-1.19,1.18C200.907,131.244,201.758,131.335,202.332,131.539z"/>
		<path fill="#FFFFFF" d="M200.322,142.784c-0.481,1.684,0.369,3.083,1.072,4.45c1.281,2.487,3.085,4.411,5.752,5.621
			c2.75,1.247,5.404,1.655,8.219,0.491c0.438-0.183,0.865-0.3,1.331-0.293c-0.001-0.033-0.003-0.068,0.012-0.081
			c0.765-0.583,1.497-1.217,2.397-1.592c0.005-0.318,0.618-0.158,0.478-0.523c-0.452-1.156,0.163-1.817,1.035-2.369
			c0.276-0.173,0.261-0.511,0.127-0.592c-0.807-0.482-0.227-0.579,0.154-0.88c0.598-0.473,0.56-1.235,0.61-1.923
			c0.014-0.186-0.195-0.429-0.354-0.354c-0.568,0.27-0.808,0.814-0.981,1.384c-0.034,0.111-0.053,0.229-0.09,0.338
			c-0.336,0.993-0.925,1.254-1.837,0.867c-0.2-0.083-0.464-0.013-0.698-0.013c-0.035,0.912,1.021,0.727,1.385,1.584
			c-1.047-0.354-1.922-0.65-2.796-0.947c-0.271,0.318,0,1.036-0.887,0.997c0.331-0.396-0.081-1.089,0.722-1.198
			c0.087-0.47,0-0.679-0.585-0.73c-1.14-0.094-1.817,0.714-2.927,1.444c0.416-0.883,0.625-1.45-0.256-1.761
			c-0.418-0.145-0.247-0.346,0.054-0.72c1.995-2.456,1.71-5.564-0.512-7.406c-2.223-1.839-4.563,0.043-5.235,2.025
			c-0.044,0.126-0.136,1.173,0.816,1.336c0.718,0.123,0.705,1.085,0.903,1.672c0.206,0.611-0.992-0.227-0.921,0.628
			c0.009,0.111-0.334-0.007-0.357-0.119c-0.295-1.425-1.575-2.662-0.845-4.283c0.111-0.246,0.275-0.494-0.069-0.684
			c-0.557-0.307-0.004,0.555-0.528,0.482c-0.396-0.054,0.326,0.491-0.148,0.682c-0.684,0.273-1.074,0.803-1.031,1.672
			c-0.652-0.517-0.184-1.181-0.554-1.738c-0.6,1.133-0.947,0.007-1.505-0.254c-0.065,0.724,0.486,1.296,0.102,1.959
			c-0.796-0.737-0.44-1.641-0.38-2.457c0.03-0.417-0.329-0.437-0.38-0.558c-0.279-0.66-0.373-0.031-0.522,0.038
			c-0.096,0.045,0.024,0.355-0.238,0.22c-0.979-0.508-0.921,0.368-0.705,0.697C200.789,140.868,199.268,141.902,200.322,142.784z
			 M207.646,144.419c0.058,0.085,0.106,0.184,0.131,0.286c0.006,0.019-0.1,0.068-0.171,0.111c-0.052-0.109-0.099-0.214-0.146-0.318
			C207.524,144.47,207.639,144.408,207.646,144.419z"/>
		<path fill="#FFFFFF" d="M199.029,148.813c0.67,0.759,1.235,1.628,1.75,2.504c0.236,0.404,0.547,0.775,0.859,0.462
			c0.374-0.376-0.154-0.518-0.457-0.675c-0.093-0.05-0.061-0.298-0.137-0.423c-0.717-1.197-1.624-2.271-2.249-3.568
			C198.666,147.726,198.545,148.269,199.029,148.813z"/>
		<path fill="#FFFFFF" d="M221.5,143.068c-0.28-0.103-0.491,0.246-0.413,0.351c0.218,0.302,0.02,0.869,0.454,0.936
			c0.334,0.052,0.496-0.31,0.471-0.689C222.144,143.235,221.764,143.164,221.5,143.068z"/>
		<path fill="#FFFFFF" d="M221.227,151.491c0.22-0.303,0.16-0.803-0.295-1.016c-0.246-0.114-0.781-0.026-0.753,0.042
			c0.552,1.389-0.538,0.729-0.981,0.852c0.37,0.005-0.46,1.027,0.444,0.593c0.104-0.049,0.224,0.027,0.196,0.175
			c-0.026,0.142-0.105,0.397-0.122,0.394c-1.072-0.209-1.875,1.049-2.988,0.563c0.039,0.665-0.22,1.045-0.957,0.938
			c-0.789-0.113-1.432,0.444-2.228,0.434c-0.793-0.009-1.587,0.279-2.387,0.394c-1.045,0.148-1.843-0.746-2.878-0.71
			c-0.918,0.032-1.532-0.624-2.271-1.034c-1.36-0.752-2.338-1.982-3.623-2.828c-0.322,0.508-0.169,1.252-0.058,1.423
			c0.392,0.604-0.093,1.399,0.767,1.969c1.063,0.71,2.139,1.45,3.177,2.22c0.275,0.203,0.524,0.543,0.995,0.563
			c1.854,0.072,3.628,0.914,5.509,0.684c1.02-0.126,2.166,0.273,3.046-0.635c0.17-0.173,0.068-0.629,0.512-0.529
			c0.288,0.741,0.275,0.73,0.749,0.226c0.209-0.222,0.413-0.418,0.77-0.508c1.039-0.261,1.92-0.792,2.445-1.995
			c-0.641,0.33-1.133,0.596-1.637,0.874c-1.021,0.562-2.074,0.924-3.332,0.649c-0.014,0.006-0.026-0.227-0.041-0.227
			c-0.019,0-0.039,0-0.059,0c0.008,0,0.019,0.227,0.025,0.213c0.027,0.007,0.05,0.131,0.074,0.137
			c1.007-0.529,1.976-1.067,3.091-1.383C219.752,153.588,220.472,152.523,221.227,151.491z M211.539,156.495
			c-2.72-0.597-5.364-1.358-7.693-2.958c-0.163-0.112-0.285-0.281-0.439-0.407c-0.224-0.181-0.254-0.452-0.145-0.643
			c0.137-0.236,0.414-0.163,0.64-0.058c0.174,0.079,0.381,0.137,0.51,0.267c1.527,1.564,3.523,2.182,5.529,2.799
			c0.532,0.164,1.002,0.373,1.561,0.045c0.319-0.188,0.657-0.066,0.826,0.367C211.92,155.95,212.152,156.63,211.539,156.495z
			 M212.654,156c0.999,0,1.788,0,2.572,0C214.791,156,213.667,156,212.654,156z"/>
		<path fill="#FFFFFF" d="M211.974,129.023c-1.128-0.874-3.599-0.518-5.28,0.747C208.54,129.378,210.122,128.754,211.974,129.023z"
			/>
		<path fill="#FFFFFF" d="M197.656,140.134c-0.943,0.349-0.263,1.318-0.313,2.155c0.149-1.139,1.924,0.227,1.658-1.173
			C198.929,140.717,198.173,139.941,197.656,140.134z"/>
		<path fill="#FFFFFF" d="M193.936,156.582c-0.629-0.123-1.377,0.102-1.352,1.258c0.071,3.164-0.002,3.16,3.158,3.16
			c0.12,0,0.241,0,0.36,0c0.763,0,1.524-0.022,2.283,0.02c0.719,0.038,1.029-0.191,0.993-0.938c-0.044-0.879-0.04-1.772,0-2.651
			c0.025-0.551-0.127-0.695-0.709-0.771C197.094,156.452,195.524,156.896,193.936,156.582z"/>
		<path fill="#FFFFFF" d="M197.605,175.185c-0.043-0.004-0.141,0.146-0.152,0.23c-0.021,0.176,0.064,0.308,0.261,0.28
			c0.103-0.016,0.195-0.088,0.193-0.088C197.914,175.255,197.754,175.201,197.605,175.185z"/>
		<path fill="#FFFFFF" d="M202.402,186.207c0.446,1.282-0.34,2.329-0.146,3.477c0.086,0.505-0.191,0.903-0.423,1.309
			c-0.105,0.153-0.211,0.305-0.315,0.46c-0.149,0.222-0.319,0.449-0.187,0.733c0.077,0.168,0.17-0.005,0.258-0.015
			c0.416-0.056,0.465-0.327,0.431-0.667c-0.011-0.116,0.011-0.233,0.017-0.351C203.207,189.263,203.487,186.901,202.402,186.207z"/>
		<path fill="#FFFFFF" d="M198.628,146.679c-0.401-0.603,0.072-1.461-0.684-2.053C197.979,145.463,197.613,146.283,198.628,146.679z
			"/>
		<path fill="#FFFFFF" d="M199.878,175.65c-0.138-1.064-1.401-1.013-1.813-1.806c-0.127-0.132-0.216-0.353-0.451-0.269
			c-0.073,0.027-0.16,0.167-0.154,0.248c0.023,0.289,0.281,0.176,0.445,0.224C198.354,174.845,198.645,175.845,199.878,175.65z"/>
		<path fill="#FFFFFF" d="M198.601,176.063c0.648,1.662,1.874,3.031,2.679,4.612c0.857,1.686,0.586,3.643,1.709,5.217
			C203.927,183.501,200.876,177.242,198.601,176.063z"/>
		<path fill="#FFFFFF" d="M199.905,175.683c0.007-0.013,0.005-0.021,0.01-0.034c-0.014,0.002-0.022,0-0.037,0.002
			c0.002,0.011,0.008,0.018,0.009,0.029C199.893,175.68,199.899,175.683,199.905,175.683z"/>
		<path fill="#FFFFFF" d="M199.741,195.099c-0.373,0.298-1.042,0.44-1.057,0.968c-0.013,0.446,0.519,0.716,0.852,1.028
			c0.24-0.402,0.743-0.627,0.768-0.802C200.365,195.471,199.848,195.016,199.741,195.099z"/>
		<path fill="#FFFFFF" d="M200.313,176.217c0.007,0.25,0.043,0.488,0.341,0.547c0.053,0.01,0.168-0.063,0.175-0.106
			c0.034-0.263-0.085-0.46-0.308-0.597c-0.141-0.231-0.342-0.363-0.615-0.378C199.772,176.048,199.901,176.231,200.313,176.217z"/>
		<path fill="#FFFFFF" d="M180.541,173.014c0.019-0.263-0.318-0.226-0.468-0.17c-0.609,0.229-1.2,0.497-0.859,1.375
			c0.188-0.143,0.356-0.333,0.564-0.41C180.175,173.66,180.507,173.438,180.541,173.014z"/>
		<path fill="#FFFFFF" d="M200.298,230.853c0.006,0.018,0.012,0.034,0.017,0.054c0.019,0.011,0.032,0.023,0.05,0.034
			c-0.004-0.023-0.011-0.045-0.013-0.07C200.333,230.864,200.315,230.858,200.298,230.853z"/>
		<path fill="#FFFFFF" d="M227.713,163.664c0.334-0.008,0.336-0.158,0.225-0.464c-0.885-2.407-0.389-4.958-0.481-7.411
			c-0.076-1.935-0.088-3.958,0.039-5.944c0.132-2.087-0.036-4.219-0.063-6.313c-0.024-1.673,0.057-3.405,0.088-5.104
			c0.092-4.855,0.034-9.714,0.034-14.573c0-0.282-0.054-0.577,0.015-0.842c0.271-1.025,0.284-1.06-0.889-1.006
			c-0.653,0.03-1.666-0.507-1.7,1.054c-0.278-1.305-1.106-1.093-1.932-1.09c-1.159,0.002-2.345-0.02-3.474-0.087
			c-2.001-0.12-4.006-0.394-6.022-0.364c-0.582,0.011-1.218,0.34-1.733,0.194c-1.547-0.436-3.1,0.004-4.636-0.196
			c-0.413-0.054-0.897-0.151-0.852,0.598c0.033,0.52-0.566,0.454-0.609,0.227c-0.283-1.476-1.454-1.017-2.297-1.049
			c-2.005-0.077-4.018-0.032-6.024-0.017c-0.265,0.001-0.822-0.462-0.7,0.351c0.036,0.241-0.106,0.362-0.355,0.364
			c-0.236,0-0.41-0.078-0.401-0.335c0.015-0.513-0.833-0.628-0.972-0.585c-0.95,0.301-1.972-0.438-2.972-0.269v2.313l0.073,0.229
			c0.017,0.575,0.209,1.148,0.216,1.72c0.006,0.633,0.951,0.452,1.013,1.078c0.088,0.854-0.903,0.262-0.905,0.674
			c-0.001,0.773-0.302,1.623,0.332,2.438c0.131-0.637,0.415-0.968,1.058-0.972c-0.294,0.645-0.892,1.281,0.187,1.706
			c0.186,0.073,0.368,0.257,0.151,0.556c-0.157,0.216,0.152,0.46,0.25,0.34c0.504-0.615,0.935-0.064,1.396,0.013
			c0.953,0.155,1.963-0.468,2.892,0.218c0.073,0.056,0.39-0.101,0.497-0.234c0.253-0.318-0.297-0.164-0.28-0.419
			c0.022-0.318-0.297-0.594-0.486-0.625c-1.222-0.197-0.743-1.005-0.604-1.642c0.116-0.532,0.645-0.561,1.078-0.662
			c0.426-0.101,0.867,0.06,1.083,0.32c0.137,0.167-0.125,0.635-0.364,0.782c-0.537,0.106-0.277-0.78-1.066-0.5
			c0.603,0.232-0.462,2.143,1.283,0.929c0.005-0.004,0.057,0.052,0.081,0.08c0.226,0.258,0.584,0.497,0.812,0.247
			c0.254-0.28,0.166-0.732,0.022-1.126c-0.055-0.146-0.697-0.256-0.051-0.529c0.315-0.135,0.516-0.523,0.828,0.015
			c0.088,0.15,0.411,0.17,0.624,0.248c0.089-1.196,1.158-0.545,1.693-0.898c0.108-0.071,0.216-0.142,0.323-0.213
			c0.087,0.198,0.062,0.351-0.169,0.421c0.085,0.894,0.554,0.483,0.831,0.19c0.86-0.908,2.135-0.828,3.17-1.327
			c0.67-0.322,1.581-0.587,2.452-0.57c0.492,0.009,0.739,0.19,0.756,0.692c0.019,0.577-0.173,0.401-0.622,0.353
			c-1.629-0.175-2.116,0.081-2.789,1.205c5.298-2.019,9.537,0.268,13.565,3.202c0.184-0.651-0.486-0.932-0.093-1.574
			c0.369,0.5,0.542,1.047,1.134,1.228c0.772,0.235,1.115,0.9,1.349,1.626c0.314,0.06,0.164,0.425,0.367,0.558
			c0.408,0.378,0.937,0.682,0.837,1.369c0.315,0.06,0.165,0.426,0.366,0.559c0.564,0.243,0.156,0.877,0.49,1.213
			c0.543,0.891,0.76,1.884,0.603,2.886c-0.062,0.415,0.268,0.705-0.024,1.113c0.008-1.333-0.791-2.471-0.75-3.807
			c-0.893-0.108-0.267-0.825-0.482-1.205c-0.315-0.06-0.163-0.428-0.368-0.56c-0.302-0.442-0.755-0.791-0.836-1.367
			c-0.314-0.061-0.165-0.428-0.369-0.56c-0.401-0.321-0.712-0.71-0.976-1.158c-0.188-0.32-0.516-0.318-0.824-0.088
			c-0.226,0.17-0.144,0.307,0.019,0.463c1.052,1.004,1.722,2.261,2.345,3.55c0.74,1.524,1.5,3.044,1.042,4.834
			c-0.046,0.175-0.011,0.405,0.067,0.574c0.266,0.572,0.213,1.223,0.114,1.743c-0.351,1.846-0.102,3.754-0.665,5.566
			c-0.048,0.156-0.125,0.571,0.322,0.296c0.427-2.145,1.326-4.201,1.172-6.497c0.553,0.235,0.813,0.663,0.646,1.19
			c-0.451,1.425-0.355,2.953-0.797,4.35c-0.198,0.636,0.255,1.053,0.086,1.563c-0.064,0.191,0.441,0.396-0.02,0.522
			c-0.251,0.069-0.473,0.003-0.459-0.348c0.013-0.318,0.068-0.688-0.462-0.583c-0.127,0.748-0.252,1.427-0.972,1.957
			c-0.395,0.29-0.813,0.977-0.271,1.619c0.016-0.297,0.118-0.714,0.42-0.564c0.251,0.127,0.077,0.539-0.217,0.727
			c-0.245,0.117-0.08,0.673-0.481,0.538c-0.188-0.063-0.41-0.436-0.39-0.643c0.045-0.419,0.22-0.833-0.345-0.988
			c-0.264-0.071-0.598-0.073-0.754,0.22c-0.216,0.399-0.328,0.775,0.236,1.067c0.196,0.101,0.236,0.621-0.151,0.575
			c-0.235-0.028-0.569,0.645-0.692-0.03c-0.071-0.382-0.2-0.57-0.498-0.249c-0.18,0.193-0.827,0.42-0.281,0.779
			c0.521,0.339,0.198,0.536-0.033,0.664c-0.27,0.149-0.565,0.317-0.379,0.579c0.215,0.296,0.498-0.032,0.731-0.158
			c0.146-0.081,0.286-0.146,0.521,0.207c-1.051,0.611-1.618,1.587-1.646,2.871c-0.245-0.369-0.018-0.972-0.64-0.979
			c-0.448-0.004-1.646,1.777-1.61,2.223c-1.637-0.593-2.766-0.927-3.004,2.073c0.008,0,0.018,0,0.025,0
			c0.001,0,0.003-0.329,0.003-0.329c0.01,0.006,0.021-0.151,0.03-0.146c0.273-0.074,0.557-0.283,0.759,0.074
			c0.157,0.009,0.317-0.047,0.467-0.01c0.421,0.105,0.515,0.401,0.478,0.786c-0.015,0.139,0.037,0.341-0.183,0.349
			c-0.392,0.012-0.468-0.312-0.595-0.598c-0.074-0.171-0.243-0.299-0.37-0.446c-0.186-0.106-0.369-0.214-0.556-0.316
			c-0.021,0.007-0.044,0.012-0.064,0.017c0.001-0.009,0.002-0.018,0.005-0.028c-0.238,0.01-0.807,0.429-0.563-0.106
			c0.438-0.968-0.541-0.783-0.609-0.759c-1.003,0.351-2.24-0.317-3.081,0.703c-0.11,0.135-0.313,0.207-0.418,0.088
			c-0.675-0.785-1.575-0.371-2.341-0.328c-0.58,0.035-1.143-0.802-1.71-0.055c0.281,0.265,0.564,0.525,0.833,0.804
			c0.41,0.421,0.932,0.128,1.13-0.073c0.551-0.56,0.482-0.6,1.117-0.202c0.255,0.159,0.554,0.26,0.845,0.344
			c0.748,0.211,1.204,0.408,0.197,1.01c-0.605,0.363-0.634,1.128-0.007,1.314c1.077,0.32,2.239,0.461,3.385,0.265
			c0.205-0.034,0.512-0.207,0.547-0.365c0.237-1.094,0.723-0.426,1.167-0.259c-0.089,0.392-0.717,0-0.609,0.628
			c0.146,0.021,0.349,0.109,0.505,0.061c1.917-0.618,3.87-0.005,5.811-0.118c1.732-0.103,3.547,0.085,5.326,0.151
			c0.304,0.014,0.981-0.033,0.724,0.697c-0.114,0.328,0.141,0.396,0.327,0.462c0.129,0.046,0.357,0.016,0.439-0.074
			c0.177-0.196-0.018-0.35-0.155-0.49C227.339,163.818,227.3,163.673,227.713,163.664z M213.531,126.577
			c-0.416-0.05-0.729-0.21-0.656-0.647c0.113-0.66,0.54-0.073,0.684-0.043c1.857,0.382,3.739,0.725,5.536,1.977
			c-1.481-0.075-2.488-0.897-3.695-1.128C214.764,126.611,214.15,126.647,213.531,126.577z M219.007,128.271
			c0.55-0.213,0.979-0.165,1.129,0.648C219.654,128.643,219.328,128.457,219.007,128.271z M220.632,129.446
			c-0.244,0.027-0.339-0.144-0.362-0.347c-0.006-0.023,0.202-0.121,0.287-0.099c0.127,0.035,0.234,0.146,0.42,0.276
			C220.803,129.365,220.721,129.434,220.632,129.446z M212.129,161.977c0.021-0.356,0.133-0.716,0.486-0.678
			c0.532,0.056-0.005,0.426,0.087,0.583c0.175,0.296,0.439,0.539,0.782,0.938C212.51,163.092,212.073,162.889,212.129,161.977z
			 M219.518,158.084c-0.063-0.087-0.146-0.163-0.133-0.198c0.035-0.083,0.116-0.147,0.177-0.22c0.038,0.049,0.12,0.11,0.108,0.145
			C219.645,157.902,219.579,157.983,219.518,158.084z M225.385,161.748c-0.277-0.608-0.313-1.077-0.734-1.372
			c0.477-0.106,0.896-0.207,1.126,0.225C226.005,161.028,225.566,161.223,225.385,161.748z"/>
		<path fill="#FFFFFF" d="M198.808,229.107c0.334,0.91,0.684,1.527,1.49,1.745C200.08,230.14,199.777,229.486,198.808,229.107z"/>
		<path fill="#FFFFFF" d="M202.188,233.959c-0.204-1.162-0.785-2.274-1.824-3.019c0.134,1.198,1.001,2.078,1.442,3.146
			c0.248,0.596-0.119,1.54,0.801,1.858C203.141,235.134,202.305,234.62,202.188,233.959z"/>
		<path fill="#FFFFFF" d="M204.262,217.686l-3.841-3.844c-0.665-0.004-1.331-0.009-1.995-0.013c-1.544-0.011-3.09-0.011-4.634,0.004
			l3.901,3.927c0.477,0.009,0.952,0.086,1.428,0.104c1.304,0.056,2.63-0.212,3.903-0.153
			C203.436,217.729,203.85,217.706,204.262,217.686z"/>
		<path fill="#FFFFFF" d="M230.401,148.724c-0.5-0.174-0.237-0.62-0.221-0.912c0.048-0.814-0.273-1.541-0.343-2.275
			c-0.685,1.57-0.131,3.165-0.061,4.805c0.192-0.699,0.715-0.894,1.252-1.124c0.011,0.013-0.029,0.025-0.029,0.037v-1.201
			C231,148.085,231.047,148.945,230.401,148.724z"/>
		<path fill="#FFFFFF" d="M230.482,137.607c-0.076-0.971-0.326-1.811-0.414-2.827c-0.109-1.239,0.625-2.583-0.446-3.93
			c0,1.249,0.146,2.338-0.033,3.37c-0.203,1.157-0.248,2.219,0.079,3.379c0.343,1.218,0.98,2.434,0.744,3.743
			c-0.236,1.305-0.252,2.604-0.291,3.911c-0.018,0.694,0.879,0.93,0.879,0.793v-9.313C231,136.848,230.934,137.412,230.482,137.607z
			"/>
		<path fill="#FFFFFF" d="M229.569,159.844c0.064,0.498,0.042,1.059,0.217,1.584c0.587-1.369,0.587-1.369-0.028-3.254
			C229.684,158.798,229.515,159.404,229.569,159.844z"/>
		<path fill="#FFFFFF" d="M178.27,176.144c0.11,0.073,0.219,0.147,0.326,0.22c0.092-0.199,0.065-0.352-0.168-0.425
			c-0.04-0.145-0.046-0.318-0.128-0.435c-0.168-0.238-0.148-0.654-0.541-0.676c-0.091-0.004-0.257,0.209-0.288,0.346
			c-0.096,0.406,0.075,0.68,0.494,0.792C178.075,175.994,178.169,176.084,178.27,176.144z"/>
		<path fill="#FFFFFF" d="M197.906,226.57c0.068,0.232,0.222,0.257,0.42,0.169c-0.07-0.107-0.14-0.217-0.212-0.324
			c-0.798-0.445-1.37-1.369-2.795-1.28C196.495,225.517,196.847,226.653,197.906,226.57z"/>
		<path fill="#FFFFFF" d="M230.33,150.938c0.181-0.05,0.017,0.647,0.331,0.165c0.128-0.195-0.008-0.425-0.344-0.451
			c-0.477-0.036-0.624,0.13-0.605,0.603c0.034,0.876,0.009,1.756,0.009,2.74c0.189-0.098,0.269-0.117,0.312-0.166
			c0.605-0.671,0.605-0.671,0.041-1.301C229.835,152.263,230.04,151.016,230.33,150.938z"/>
		<path fill="#FFFFFF" d="M174.334,179.342c-0.087,0.177,0.138,0.639,0.275,0.419c0.35-0.556,1.06-1.027,0.737-2.136
			C174.928,178.323,174.595,178.814,174.334,179.342z"/>
		<path fill="#FFFFFF" d="M174.081,210.395c0.545,0,1.089,0.143,1.492,0.447l0.343,0.199c1.229-0.072,2.422-0.2,3.558-0.2
			l1.363-0.124l-3.206-3.204c-0.899-0.003-1.797,0.002-2.697-0.003c-0.707-0.001-1.407-0.072-2.116-0.177
			c-0.708-0.104-1.431-0.106-2.155-0.09l3.175,3.175C173.917,210.409,173.993,210.395,174.081,210.395z"/>
		<path fill="#FFFFFF" d="M174.188,180.149c0.039,0.663-0.781,0.844-0.813,1.369c-0.142,2.356-1.067,4.56-0.392,7.109
			c0.618,2.331,1.327,4.469,2.76,6.379c0.023,0.229-0.011,0.502,0.355,0.455c0.069-0.008,0.187-0.032,0.197-0.072
			c0.089-0.302-0.203-0.374-0.346-0.538c-0.438-0.854-1.008-1.666-1.281-2.568c-0.529-1.738-1.612-3.354-1.21-5.343
			c0.069-0.344-0.07-0.707,0.371-0.715c0.501-0.008,0.097,0.499,0.272,0.684c0.327,0.344,0.171,0.754,0.214,1.138
			c0.106,1.002,0.214,2.009,0.685,2.92c0.852,1.649,1.427,3.48,2.98,4.688c0.231,0.181,0.141,0.35,0.035,0.605
			c-0.131,0.311-0.085,0.705-0.08,1.063c0.006,0.463,0.405,0.588,0.731,0.65c0.439,0.086,0.186-0.365,0.302-0.551
			c0.586-0.941-0.014-1.6-0.644-2.196c-0.591-0.558-0.498-1.222-0.476-1.927c0.316,0.531,0.975,0.521,1.273,0.942
			c1.226,1.722,3.189,2.427,4.86,3.523c0.609,0.399,1.393-0.003,1.343-0.614c-0.082-1.014,0.273-0.729,0.781-0.477
			c0.425,0.212,1.063,0.086,0.9-0.292c-0.346-0.818,0.116-0.613,0.543-0.682c0.657-0.106,1.526-0.568,1.288-1.106
			c-0.431-0.98,0.159-0.654,0.604-0.837c0.923-0.378,1.967-0.266,2.845-0.866c0.434-0.294,0.415-0.634,0.28-0.867
			c-0.209-0.365-0.054-0.974-0.571-1.099c-0.467-0.113-0.557,0.377-0.674,0.677c-0.154,0.395-0.404,0.448-0.788,0.522
			c-0.853,0.172-1.674-0.103-2.515-0.07c-0.2,0.011-0.676-0.201-0.49-0.675c-0.381-0.021-0.916,0.261-0.933-0.473
			c-1.358-0.269-2.512-2.977-1.67-4.095c0.381-0.504,0.181-0.941,0.152-1.421c-0.03-0.517-1.419-0.556-0.498-1.405
			c-1.321-0.716,0.473-0.392,0.185-0.838c-0.646-0.01-1.13-0.936-2.011-0.461c-0.139,0.07-0.519,0.062-0.461-0.19
			c0.213-0.905-0.756-0.976-1.059-1.54c-0.444-0.834-1.173-0.656-1.681,0.22c-0.299,0.511-0.617,1.021-0.998,1.47
			c-0.143,0.169-0.271,0.667-0.681,0.353c-0.31-0.241-0.678-0.519-0.165-0.938c0.19-0.156,0.379-0.387,0.027-0.536
			c-0.189-0.08-0.389-0.054-0.555,0.245c-0.814,1.455-1.18,2.986-1.217,4.66c-0.021,0.979,0.381,1.933,0.066,2.93
			c-0.143-2.596-1.36-4.986-1.206-7.634c-0.207,0.166-0.23,0.315-0.273,0.458c-0.286,0.965-0.196,1.964-0.28,2.944
			c-0.021,0.248-0.099,0.749-0.618,0.703c-0.465-0.041-0.291-0.406-0.297-0.642c-0.031-1.146-0.011-2.339,0.568-3.323
			C174.281,181.265,174.341,180.773,174.188,180.149z"/>
		<path fill="#FFFFFF" d="M175.391,181.074c0.457-0.777,0.861-1.47,1.271-2.166C175.869,178.893,175.374,179.701,175.391,181.074z"
			/>
		<path fill="#FFFFFF" d="M167.541,175.242c0.318-0.141,0.739-0.172,0.743-0.66c0.001-0.094,0.014-0.286-0.164-0.196
			c-0.25,0.124-0.658,0.128-0.569,0.59c-0.063,0.062-0.124,0.124-0.186,0.184C167.423,175.187,167.483,175.215,167.541,175.242z"/>
		<path fill="#FFFFFF" d="M168.297,217.632c0.793-0.179,1.56-0.158,2.375-0.027c0.229,0.036,0.454,0.06,0.684,0.079l-3.979-3.979
			c-0.805,1.074-0.713,2.213,0.051,3.405C167.607,217.392,167.859,217.729,168.297,217.632z"/>
		<path fill="#FFFFFF" d="M167.543,176.71c0.324-0.603,0.313-0.951,0.131-1.425C167.236,175.687,167.278,176.037,167.543,176.71z"/>
		<path fill="#FFFFFF" d="M166.591,206.351l0.729-0.011c-0.024-0.885-0.098-1.763-0.312-2.626c-0.993,0.466,0.085,1.158-0.299,1.831
			C166.59,205.752,166.579,206.04,166.591,206.351z"/>
		<path fill="#FFFFFF" d="M188.484,238.135c-0.227,0.156-0.66,0.092-0.669,0.618c0.399,0.07,0.849,0.288,1.159-0.086
			c0.521-0.625,1.204-0.891,1.936-1.141c0.967-0.331,1.329-1.197,1.448-2.088c0.161-1.197-0.892-1.971-1.922-1.398
			c-1.332,0.741-2.682-0.419-4.113,0.227c-0.53,0.239-0.882,0.244-0.922,0.831c-0.101,1.582,1.32,2.735,2.774,2.311
			c0.219-0.063,0.573-0.431,0.765,0.063C189.102,237.89,188.743,237.958,188.484,238.135z"/>
		<path fill="#FFFFFF" d="M203.031,237.276c-0.303,0.265-0.644,0.421-0.512,0.725c0.209,0.475-0.321,1.081,0.279,1.452
			c0.217,0.135,0.178-0.124,0.17-0.173c-0.062-0.391,0.331-0.523,0.443-0.805C203.606,237.994,203.214,237.723,203.031,237.276z"/>
		<path fill="#FFFFFF" d="M209.219,185.12c0.288,0.026,0.236,0.25,0.27,0.44c0.264,1.45,0.414,2.971,0.168,4.364
			c-0.311,1.754,0.397,3.466-0.045,5.119c-0.21,0.792,0.067,1.384,0.1,2.068c0.052,1.194-0.072,2.404,0.433,3.775
			c0.605-1.076,0.6-2.114,0.556-3.114c-0.032-0.784-0.259-1.558-0.264-2.365c-0.023-3.749,0.16-7.502-0.141-11.245
			c-0.074-0.95-0.68-1.864,0.125-2.769c0.078-0.087-0.004-0.319-0.206-0.356c-0.667-0.121-1.155-0.867-2.004-0.58
			c0.757-0.272,0.938-0.744,0.877-1.397c-0.024,0.038-0.057-0.137-0.091-0.136c0.007,0.003,0.012,0.075,0.017,0.075
			c-0.006,0-0.013,0-0.013,0s0-0.143,0-0.145c0,0.002,0.035,0.004,0.021,0.005c-0.01-0.001-0.021-0.01-0.021-0.01
			c0-0.002,0-0.003,0-0.004c0,0-0.015-0.002-0.019-0.003c-0.237-0.055-0.12-0.348-0.154-0.589c-0.095-0.676-0.073-1.38-0.379-2.03
			c-0.538,0.338-0.375,0.816-0.381,1.237c-0.021,1.771-0.088,3.542-0.025,5.311C208.074,183.685,207.583,184.971,209.219,185.12z
			 M209.479,184.053c-0.017,0.114,0.029,0.335-0.222,0.198c-0.188-0.101-0.278-0.265-0.238-0.474
			c0.019-0.089,0.04-0.236,0.285-0.145C209.449,183.676,209.509,183.846,209.479,184.053z M208.975,183.436
			c-0.059-0.029-0.117-0.058-0.174-0.085c0.063-0.061,0.122-0.123,0.183-0.184c0.125-0.734-0.322-1.377-0.345-2.099
			C209.547,181.608,209.707,182.781,208.975,183.436z"/>
		<path fill="#FFFFFF" d="M208.744,161.861c-0.596,0.25-0.77-0.863-1.064-0.483c-0.49,0.633-0.731,0.321-1.094,0.003
			c-0.343-0.302-0.473,0.04-0.657,0.22c-0.13,0.281-0.411-0.249-0.521,0.096c-0.021,0.065,0.006,0.203,0.039,0.214
			c0.25,0.081,0.523,0.203,0.686-0.147C206.972,162.226,207.818,162.507,208.744,161.861z"/>
		<path fill="#FFFFFF" d="M209.439,180.536c0.92-1.198,0.986-1.583-0.313-3.1c-0.44,0.505,0.131,0.952,0.089,1.429
			c-0.015-0.012-0.048,0.009-0.063,0c0,0.011-0.021,0.051-0.033,0.081C209.637,179.383,209.234,180.023,209.439,180.536z"/>
		<path fill="#FFFFFF" d="M208.069,174.355c0.219,0.402,0.121,1.001,0.694,1.088c0.292,0.047,0.5-0.248,0.473-0.558
			C209.166,174.065,208.324,174.896,208.069,174.355z"/>
		<path fill="#FFFFFF" d="M208.099,169.541c-0.28,0.74,0.317,1.472,0.058,2.234C208.75,171.031,208.806,170.275,208.099,169.541z"/>
		<path fill="#FFFFFF" d="M207.366,190.454c0.247-0.053,0.29-0.441,0.144-0.619c-0.77-0.939-0.911-2.315-2.129-2.963
			c-0.39-0.205-0.923-0.711-0.892-1.036c0.103-1.149-0.298-2.184-0.578-3.224c-0.262-0.968-0.193-2.121-1.152-2.82
			c-0.463-0.933-0.569-2.091-1.629-2.652c0.128,1.121,0.895,1.902,1.423,2.81c0.06,0.895,0.501,1.693,0.746,2.531
			c0.264,0.909,0.229,1.835,0.238,2.683c0.013,1.531,0.893,2.812,0.899,4.303c0.003,0.891,0.658,1.301,1.396,1.494
			C206.391,191.106,206.83,190.574,207.366,190.454z"/>
		<path fill="#FFFFFF" d="M204.455,193.994c-0.074,0.918,0.387,1.604,0.32,2.346C205.525,195.467,204.952,194.82,204.455,193.994z"
			/>
		<path fill="#FFFFFF" d="M203.783,235.082c0.414,0.859-0.088,1.901,0.668,2.977C204.345,236.824,204.73,235.805,203.783,235.082z"
			/>
		<path fill="#FFFFFF" d="M203.87,188.284c-0.101-0.01-0.205-0.021-0.308-0.03c-0.106,0.701-0.211,1.402-0.313,2.103
			C204.073,189.732,204.003,189.012,203.87,188.284z"/>
		<path fill="#FFFFFF" d="M149.426,146.95c1.801,4.802,4.87,8.692,10.572,9.131c-10.727-4.299-12.357-12.146-8.716-22.123
			C148.322,137.961,147.754,142.492,149.426,146.95z"/>
		<path fill="#FFFFFF" d="M195.571,173.934c0.428,0.499,0.831,1.04,1.673,0.792c-0.524-0.343-0.798-0.957-1.472-0.955
			c-0.509-0.268-0.857-1.01-1.64-0.568C194.496,173.724,195.096,173.708,195.571,173.934z"/>
		<path fill="#FFFFFF" d="M228.741,121.278c0.045-0.175,0.085-0.458-0.191-0.474c-1.146-0.063-2.08-0.763-3.175-1.008
			c-1.462-0.327-2.918-0.133-4.375-0.192c-3.341-0.139-6.681-0.192-10.023-0.248c-0.488-0.01-0.982-0.081-1.442-0.06
			c-1.146,0.056-2.255-0.24-3.413-0.149c-0.92,0.075-1.863,0.468-2.8,0.13c-1.693-0.61-3.478-0.092-5.252-0.482
			c-1.082-0.241-2.501-0.031-3.783-0.094c-0.521-0.025-1.5-0.171-1.805,0.898c-0.044-0.613-0.248-1.001-0.892-0.937
			c-0.201,0.02-0.463-0.111-0.389,0.168c0.137,0.522,0.414,1.169,0.867,1.169h0.18l0.083,0.161c0.03,0.004,0.053,0.018,0.085,0.021
			c2.366,0.191,4.759,0.346,7.107,0.418c2.337,0.069,4.706,0.321,7.063,0.177c0.739-0.045,1.515-0.13,2.177,0.36
			c0.192,0.146,0.409,0.192,0.458-0.053c0.134-0.673,0.564-0.324,0.896-0.301c2.147,0.158,4.29,0.384,6.442,0.472
			c3.897,0.16,7.799,0.235,11.697,0.372C228.582,121.638,228.684,121.497,228.741,121.278z"/>
		<path fill="#FFFFFF" d="M210.865,211.832c-0.256,0.828-0.584,1.506-0.348,2.386l0.005,0.024c0.259-0.458,0.478-0.785,0.478-1.071
			v-0.847C211,212.176,210.938,212.018,210.865,211.832z"/>
		<path fill="#FFFFFF" d="M209.854,204.357c-0.043,0.177,0.165,0.788,0.616,0.707c0.428-0.079,0.258-0.566,0.199-0.802
			c-0.262-1.038-0.106-2.107-0.38-3.172C209.742,202.12,210.122,203.278,209.854,204.357z"/>
		<path fill="#FFFFFF" d="M193.327,210.821c0.019,0.026,0.034,0.056,0.048,0.083c0.014-0.011,0.027-0.02,0.035-0.029
			c0.146-0.688,1.14-1.032,2.102-0.572c0.326,0.157,0.641,0.301,0.894,0.301c0.123,0,0.294-0.023,0.521-0.246l-2.804-2.793
			c-0.48-0.026-0.974,0.013-1.488,0.149c-0.597,0.155-1.369,0.799-1.907,0.499c-0.693-0.384-1.358-0.213-2.086-0.213
			c-0.418,0-0.838,0-1.257,0l3.184,2c0.005,0,0.012,0,0.017,0l0.493,0.299l0.67,0.185c0.201,0,0.401,0.057,0.598,0.082
			C192.617,210.425,193.124,210.514,193.327,210.821z"/>
		<path fill="#FFFFFF" d="M223.232,142.109c-0.053,0.905,0.106,1.813-0.391,2.822C223.818,144.164,223.943,142.739,223.232,142.109z
			"/>
		<path fill="#FFFFFF" d="M211,234.862v-2.991C209,232.48,209,233.029,211,234.862z"/>
		<path fill="#FFFFFF" d="M210.02,213.419c0.02-0.073,0.103-0.129,0.121-0.203c0.688-2.422,0.56-4.887,0.4-7.354
			c-1.154,1.54,0.024,3.249-0.477,4.887c-0.168,0.545-0.32,0.793-0.754,0.849c-0.425,0.055-0.854,0.086-1.28,0.117l1.932,1.934
			C209.981,213.569,209.999,213.506,210.02,213.419z"/>
		<path fill="#FFFFFF" d="M209.161,186.487c-0.029-0.275-0.245-0.549-0.429-0.781c-0.152-0.199-0.444-0.129-0.484,0.068
			c-0.115,0.571,0.168,1.164-0.16,1.763c-0.12,0.215,0.313,0.493,0.636,0.67c0.017-0.374,0.055-0.67-0.138-1.036
			C208.334,186.688,209.197,186.845,209.161,186.487z"/>
		<path fill="#FFFFFF" d="M210.537,224.352c0.081-0.698,0.4-1.445-0.316-2.097C209.795,223.071,209.883,223.745,210.537,224.352z"/>
		<path fill="#FFFFFF" d="M205.163,208.247c0.028-0.57-0.143-0.758-0.731-0.743c-0.203,0.005-0.406,0-0.609,0.002l1.329,1.33
			C205.154,208.64,205.15,208.442,205.163,208.247z"/>
		<path fill="#FFFFFF" d="M193.581,171.56c0.012-0.205,0.005-0.408-0.269-0.412c-0.434-0.011-0.867-0.002-1.415-0.002
			c0.374,0.694,1.045,0.329,1.426,0.689C193.432,171.938,193.572,171.735,193.581,171.56z"/>
		<path fill="#FFFFFF" d="M192,138.484c1,0.42,0.521,0.848,0.73,1.205c0.185,0.317,0.508,0.438,0.767,0.344
			c0.271-0.101-0.008-0.378-0.088-0.613c-0.259-0.771-0.409-1.547-1.409-1.982V138.484z"/>
		<path fill="#FFFFFF" d="M191.159,119.82c-0.042-0.312-0.313-0.882-0.649-0.391c-0.491,0.72-1.453,0.529-1.653,0.446
			c-1.367-0.568-2.774-0.503-4.18-0.542c-2.249-0.062-2.876,0.66-2.899,2.949c-0.008,0.874-0.003,1.634,0.006,2.509L189.12,120h2.09
			C191.191,120,191.172,119.915,191.159,119.82z"/>
		<path fill="#FFFFFF" d="M191.542,163.166c0.238,0.397,0.666,0.327,1.077,0.147c-0.034-0.126-0.041-0.251-0.099-0.345
			c-0.237-0.392-0.493-0.776-0.798-1.251C191.328,162.263,191.288,162.745,191.542,163.166z"/>
		<path fill="#FFFFFF" d="M187.583,128.143c0.026,1.086,0.062,2.173-0.055,3.243c-0.107,1.008,0.549,1.944,0.589,2.925l3.831-3.833
			c0.142-2.299,0.267-4.603,0.21-6.91L187.583,128.143z"/>
		<path fill="#FFFFFF" d="M192.556,132.138c-0.177,0.016,0.444,0.103-0.556,0.207v0.228c0,0.087,0.336,0.172,0.338,0.242
			c0.013,0.366,0.547,0.298,0.739,0.225c0.364-0.142,0.642-0.716,1.212-0.291c-0.068,0.124-0.089,0.283-0.191,0.381
			c-0.291,0.279-0.438,0.572-0.135,0.925c0.092,0.104,0.363,0.226,0.384,0.201c0.242-0.289,0.487-0.588,0.651-0.921
			c0.045-0.089-0.165-0.331-0.295-0.466c-0.254-0.261,0.047-0.454,0.12-0.581c0.174-0.299,0.247,0.101,0.39,0.142
			c0.179,0.053,0.362,0.517,0.459,0.22c0.219-0.66,0.891-0.511,1.182-1.088C195.387,131.409,193.927,132.006,192.556,132.138z"/>
		<path fill="#FFFFFF" d="M187.832,150.813l4.13-4.015c0.053-1.429,0.141-2.8,0.173-4.229c0.02-0.854,0.019-1.686,0.015-2.57
			l-4.104,4.118c-0.003,2.012-0.004,4.028-0.01,6.038c0,0.046-0.063,0.096-0.113,0.165c-0.245-0.091,0.057-0.614-0.313-0.612
			C187.576,150.137,187.406,150.813,187.832,150.813L187.832,150.813z"/>
		<path fill="#FFFFFF" d="M195.657,172.371c-0.218-0.73-0.761-0.502-1.256-0.466c0.063,0.454,0.432,0.406,0.626,0.595
			C195.524,172.986,195.813,172.91,195.657,172.371z"/>
		<path fill="#FFFFFF" d="M186.629,190.88c0.369,0.036,0.683,0.179,0.921,0.465c1.283,0.135,2.413-0.224,3.496-0.931
			c1.125-0.73,1.885-3.132,1.255-4.294c-0.845-1.551-3.04-2.459-4.755-1.968c-0.87,0.251-1.999,1.651-2.168,2.457
			c-0.27,1.284,0.85,1.673,1.51,2.042c0.687,0.385,1.084,0.688,1.114,1.376C187.614,190.495,186.445,189.565,186.629,190.88z"/>
		<path fill="#FFFFFF" d="M186.843,171.735c-1.243-0.394-1.994,0.763-3.052,0.933c1.204,0.238,2.229-0.534,3.394-0.375
			c0.103,0.015,0.273-0.168,0.346-0.296c0.154-0.267,0.223-0.767,0.403-0.803c0.726-0.152,0.026,0.502,0.301,0.641
			c0.898,0.468,1.889,0.595,2.873,0.741c0.226,0.034,0.434-0.137,0.454-0.312c0.029-0.252-0.197-0.385-0.444-0.397
			c-0.282-0.016-0.661,0.106-0.823-0.032c-0.456-0.389-1.4,0.16-1.479-0.567c-0.115-1.052-0.803-0.535-1.23-0.593
			c-0.842-0.106-0.284,0.417-0.29,0.716C187.29,171.586,187.173,171.84,186.843,171.735z"/>
		<path fill="#FFFFFF" d="M181.829,157.047l4.282-4.282c0-0.083-0.008-0.165-0.005-0.248c0.063-1.643,0.04-3.291,0.001-4.937
			c-0.011-0.48-0.036-0.963-0.064-1.446l-4.265,4.264C181.731,152.617,181.651,154.846,181.829,157.047z"/>
		<path fill="#FFFFFF" d="M176.836,196.124c0.037-0.061,0.078-0.119,0.143-0.218c-0.072-0.061-0.146-0.12-0.221-0.18
			c-0.035,0.054-0.115,0.124-0.103,0.155C176.696,195.973,176.773,196.045,176.836,196.124z"/>
		<polygon fill="#FFFFFF" points="231.122,118.467 231.122,118.467 231.122,118.467 		"/>
		<path fill="#FFFFFF" d="M183.889,200.683c1.338,0.638,2.537,1.081,3.896,0.558C186.539,201.074,185.395,200.184,183.889,200.683z"
			/>
		<path fill="#FFFFFF" d="M166.711,174.102c0.032-0.344,0.289-0.591,0.289-0.779v0.002c0-0.002,0.057-0.002,0.067-0.002
			c-0.064,0.353,0.222,0.563,0.529,0.7c0.431,0.188,0.498-0.52,0.922-0.354c0.079-0.235,0.064-0.449-0.13-0.646
			c-0.361-0.362-0.412,0.157-0.619,0.205c-0.216,0.052-0.443,0.065-0.664,0.095c0.002-0.013-0.004-0.021,0-0.032
			c-0.016,0.008-0.022,0.021-0.038,0.032c-0.13-1.04,0.217-2.038,0.274-3.063c0.182-3.263-0.731-6.355-1.346-9.502
			c-0.453-2.335-0.26-4.689,0.074-7.022c0.062-0.434-0.115-0.931,0.332-1.335c0.371-0.335,0.254-0.824-0.005-1.529
			c-0.899,1.391-1.359,2.726-1.438,4.062c-0.166,2.871-0.078,5.755,0.907,8.547c0.209,0.585,0.133,1.279,0.133,1.914v0.604
			c1,1.173,0.817,2.596,0.648,3.9c-0.248,1.927-0.722,3.82-0.596,5.787c0.014,0.219-0.053,0.412-0.053,0.599v5.231
			c0-0.047-0.031-0.097-0.029-0.148C166.024,178.917,166.486,176.531,166.711,174.102z"/>
		<path fill="#FFFFFF" d="M185.154,131.313c-0.195-0.061-0.399-0.109-0.545-0.195l-2.795,2.796c-0.063,2.21-0.059,4.422,0.061,6.639
			l4.203-4.201c0.003-1.011,0.003-2.022,0.029-3.033c0.034-1.228-0.002-2.462-0.006-3.692l-0.944,0.944
			C185.158,130.817,185.154,131.06,185.154,131.313z"/>
		<path fill="#FFFFFF" d="M152.433,132.125c-0.488,0.421-0.843,0.927-0.999,1.56c-0.009,0.027,0.024,0.068,0.13,0.325
			c0.505-0.524,0.949-0.97,1.052-1.646C152.626,132.295,152.497,132.206,152.433,132.125z"/>
		<path fill="#FFFFFF" d="M187.153,217.804c0.246-0.014,0.495-0.017,0.742-0.026l-3.744-3.746c-1.036-0.022-2.073-0.042-3.109-0.067
			c-1.247-0.029-2.492-0.055-3.738-0.079l4.117,4.115C183.331,218.003,185.25,217.905,187.153,217.804z"/>
		<path fill="#FFFFFF" d="M190.015,201.468c0.301-0.085,0.211-0.364,0.146-0.586c-0.194-0.68-0.912-0.611-1.379-1.09
			c-0.045,0.727,0.686,1.021,0.55,1.619C189.561,201.435,189.81,201.525,190.015,201.468z"/>
	</g>
	<g>
		<path d="M165.604,176.919c0.052-0.421,0.323-0.769,0.295-1.234c-0.127-1.967,0.399-3.86,0.646-5.787
			c0.177-1.364,0.127-2.858-0.862-4.059c-0.104,0.455-0.301,0.869-0.295,1.368c0.029,2.946,0.01,5.897,0.022,8.844
			C165.41,176.343,165.25,176.697,165.604,176.919z"/>
		<path d="M213.559,125.887c-0.144-0.03-0.57-0.617-0.684,0.043c-0.072,0.438,0.24,0.598,0.656,0.647
			c0.619,0.07,1.232,0.034,1.868,0.158c1.207,0.23,2.214,1.053,3.695,1.128C217.298,126.611,215.416,126.269,213.559,125.887z"/>
		<path d="M212.615,161.299c-0.354-0.038-0.466,0.321-0.486,0.678c-0.056,0.912,0.381,1.115,1.355,0.844
			c-0.343-0.399-0.607-0.643-0.782-0.938C212.61,161.725,213.147,161.354,212.615,161.299z"/>
		<path d="M215.692,161.122c0.127,0.286,0.203,0.604,0.595,0.592c0.22-0.007,0.168-0.218,0.183-0.359
			c0.037-0.382-0.057-0.7-0.478-0.805c-0.149-0.038-0.31-0.022-0.467-0.031c-0.202-0.358-0.485-0.229-0.759-0.156
			c0.187,0.104,0.37,0.211,0.556,0.315C215.449,160.825,215.618,160.951,215.692,161.122z"/>
		<path d="M224.65,160.376c0.422,0.295,0.457,0.764,0.734,1.372c0.182-0.525,0.62-0.72,0.392-1.147
			C225.546,160.169,225.127,160.27,224.65,160.376z"/>
		<path d="M219.007,128.271c0.321,0.186,0.647,0.371,1.129,0.648C219.986,128.106,219.557,128.059,219.007,128.271z"/>
		<path d="M220.27,129.1c0.023,0.203,0.118,0.374,0.362,0.347c0.089-0.013,0.171-0.081,0.345-0.169
			c-0.186-0.13-0.293-0.241-0.42-0.276C220.472,128.979,220.264,129.076,220.27,129.1z"/>
		<path d="M219.385,157.886c-0.014,0.035,0.07,0.111,0.133,0.198c0.062-0.101,0.127-0.182,0.152-0.273
			c0.012-0.034-0.07-0.096-0.108-0.145C219.501,157.738,219.42,157.803,219.385,157.886z"/>
		<path d="M207.777,144.705c-0.024-0.103-0.073-0.201-0.131-0.286c-0.008-0.011-0.122,0.051-0.186,0.079
			c0.047,0.104,0.094,0.209,0.146,0.318C207.678,144.773,207.783,144.724,207.777,144.705z"/>
		<path d="M211.501,155.54c-0.559,0.328-1.028,0.119-1.561-0.045c-2.006-0.617-4.002-1.234-5.529-2.799
			c-0.129-0.13-0.336-0.188-0.51-0.267c-0.226-0.105-0.503-0.179-0.64,0.058c-0.109,0.19-0.079,0.462,0.145,0.643
			c0.154,0.126,0.276,0.295,0.439,0.407c2.329,1.6,4.974,2.361,7.693,2.958c0.613,0.135,0.381-0.545,0.788-0.588
			C212.158,155.474,211.82,155.352,211.501,155.54z"/>
		<path d="M215.227,155.495c0.02,0,0.04,0,0.059,0c0.015-0.009,0.027-0.015,0.041-0.021c-0.024-0.006-0.047-0.006-0.074-0.013
			C215.245,155.474,215.234,155.482,215.227,155.495z"/>
		<path d="M208.983,183.167c-0.061,0.061-0.12,0.123-0.183,0.184c0.057,0.027,0.115,0.056,0.174,0.085
			c0.732-0.654,0.572-1.827-0.336-2.367C208.661,181.79,209.108,182.433,208.983,183.167z"/>
		<path d="M209.019,183.777c-0.04,0.209,0.051,0.373,0.238,0.474c0.251,0.137,0.205-0.084,0.222-0.198
			c0.03-0.207-0.029-0.377-0.175-0.42C209.059,183.541,209.037,183.688,209.019,183.777z"/>
		<path d="M192.107,123.618c0.016,0.097,0.03,0.194,0.053,0.292c-0.002-0.114,0.001-0.228-0.002-0.342L192.107,123.618z"/>
		<path d="M209.013,179c-0.004,0-0.008-0.038-0.013-0.059c0,0.028,0,0.059,0,0.059S209.007,179,209.013,179z"/>
		<path d="M209,178.941c0-0.008,0-0.008,0-0.016c-0.001,0-0.003-0.001-0.004-0.001C208.998,178.926,208.999,178.936,209,178.941z"/>
		<path d="M167.146,173.322c-0.002,0.013,0,0.022-0.001,0.035c0.001-0.011,0.011-0.022,0.011-0.033
			C167.153,173.322,167.136,173.322,167.146,173.322z"/>
		<polygon points="167.156,173.322 167.155,173.324 167.156,173.324 		"/>
		<path d="M230.104,134.78c0.086,1.017,0.364,1.856,0.442,2.827c0.457-0.198,0.267-0.776,0.799-0.88
			c0.162-0.093,0.655-0.188,0.655-0.281c0-0.079,0-0.16,0-0.241c0-1.412-0.611-2.969-0.558-4.447
			c0.032-0.899,0.173-1.782-0.146-2.671c-0.219-0.614,0.189-1.149,0.158-1.739c-0.079-1.348-0.307-2.699-0.227-4.037
			c0.089-1.493-0.073-2.969-0.047-4.453c0.007-0.513-0.069-0.56-0.714-0.618c-2.093-0.19-4.221,0.513-6.286-0.24
			c-0.723,0-1.445,0-2.168,0c-0.278,0-0.725,0.174-1.084,0.176c-3.132,0.022-6.261-0.03-9.392-0.009
			c-4.049,0.028-8.1,0.122-12.146,0.151c-16.105,0.116-32.211,0.109-48.318,0.118l-3.279-0.009
			c-1.935,0.066-5.793-0.272-5.793,0.433l0.246,5.538c0.117,3.467-0.17,6.937,0.109,10.403l0.087,16.133
			c-0.238,1.32-0.154,2.621-0.167,3.926c-0.032,3.166,0.016,6.332-0.021,9.496c-0.007,0.75,0.171,0.957,0.972,1.038
			c2.009,0.205,4.033-0.041,6.045,0.38c0.98,0.205,2.071-0.077,3.108-0.196c4.34-0.496,8.693-0.109,13.042-0.186
			c0.083-0.002,0.174,0.132,0.261,0.205c0.454-0.688,0.313-1.47,0.082-2.119c-0.986-2.792-0.97-5.676-0.804-8.547
			c0.078-1.336,0.538-2.671,1.438-4.062c0.259,0.705,0.376,1.194,0.005,1.529c-0.447,0.404-0.271,0.901-0.332,1.335
			c-0.334,2.333-0.527,4.688-0.075,7.022c0.614,3.146,1.527,6.239,1.346,9.502c-0.058,1.025-0.404,2.023-0.273,3.063
			c0.014-0.011,0.021-0.024,0.035-0.032c-0.003,0.011,0,0.02-0.001,0.032c0.221-0.029,0.444-0.043,0.66-0.095
			c0.206-0.048,0.249-0.567,0.61-0.205c0.194,0.196,0.192,0.41,0.112,0.646c-0.425-0.165-0.525,0.543-0.955,0.354
			c-0.296-0.131-0.433-0.335-0.385-0.665c-0.035,0.185-0.326,0.421-0.355,0.744c-0.225,2.43-0.83,4.815-0.884,7.265
			c-0.006,0.163-0.029,0.311-0.214,0.372c-0.303,0.838-0.438,1.669-0.114,2.549c0.117,0.32,0.065,0.71,0.065,1.068
			c0.002,21.596,0.028,42.191-0.04,63.786c-0.006,1.928-0.175,4.92-0.203,6.858h46.504c0.017-4.094,0.175-8.217-0.063-12.292
			c-0.291-4.938-0.06-9.877-0.174-14.808c-0.061-2.541-0.013-5.091-0.013-7.633c0-17.907,0-35.816,0.003-53.723
			c0.001-0.747,0.07-1.503-0.833-1.945c0.054-0.122,0.107-0.246,0.16-0.368c1.67,0,3.34,0.018,5.009-0.005
			c1.94-0.026,3.895,0.053,5.805-0.195c0.989-0.128,1.84,0.293,2.803,0.184c1.865-0.209,3.769,0.03,5.637-0.262
			c0.424-0.066,1.449,0.086,1.012-0.909c-0.045-0.1,0.752-0.405,0.752-0.615c0-1.846,0-3.693,0-5.541
			c0-0.273-0.397-0.72-0.402-1.079c-0.027-2.119-0.261-4.238-0.259-6.357c0.004-0.436,0.085-0.878-0.245-1.234
			c-0.537,0.23-1.116,0.425-1.308,1.124c-0.071-1.64-0.618-3.234,0.066-4.805c0.069,0.734,0.407,1.461,0.358,2.275
			c-0.016,0.292-0.248,0.738,0.251,0.912c0.652,0.224,0.439-0.66,0.878-0.673c0.594-0.353,0.66-1.133,0.66-1.485
			c0-0.081,0-0.16,0-0.241c0-0.094-0.496-0.186-0.656-0.279c-0.658,0.143-1.077-0.091-1.059-0.791
			c0.038-1.308-0.055-2.606,0.181-3.911c0.237-1.31-0.426-2.525-0.769-3.743c-0.327-1.16-0.291-2.222-0.088-3.379
			c0.179-1.032,0.033-2.121,0.033-3.37C230.714,132.197,229.994,133.541,230.104,134.78z M152.433,132.125
			c0.064,0.081,0.193,0.17,0.183,0.238c-0.103,0.677-0.547,1.122-1.052,1.646c-0.105-0.257-0.139-0.298-0.13-0.325
			C151.59,133.052,151.944,132.546,152.433,132.125z M149.426,146.95c-1.672-4.458-1.104-8.989,1.856-12.992
			c-3.642,9.978-2.011,17.824,8.716,22.123C154.296,155.643,151.227,151.752,149.426,146.95z M230.317,150.652
			c0.336,0.026,0.472,0.256,0.344,0.451c-0.314,0.482-0.15-0.215-0.331-0.165c-0.29,0.077-0.495,1.324-0.257,1.59
			c0.564,0.63,0.564,0.63-0.041,1.301c-0.043,0.049-0.122,0.068-0.312,0.166c0-0.984,0.025-1.864-0.009-2.74
			C229.693,150.782,229.841,150.616,230.317,150.652z M229.758,158.174c0.615,1.885,0.615,1.885,0.028,3.254
			c-0.175-0.525-0.152-1.086-0.217-1.584C229.515,159.404,229.684,158.798,229.758,158.174z M190.51,119.513
			c0.336-0.491,0.607-0.004,0.649,0.308c0.013,0.095,0.032,0.18,0.051,0.18h-1.524C189.981,119.959,190.291,119.833,190.51,119.513z
			 M181.777,122.211c0.023-2.29,0.65-2.919,2.899-2.856c1.405,0.038,2.813-0.007,4.18,0.563c0.06,0.025,0.188,0.061,0.349,0.083
			h-0.085l-7.337,4.797C181.774,123.922,181.77,123.085,181.777,122.211z M192.556,132.138c1.371-0.132,2.831-0.729,4.298-0.577
			c-0.291,0.577-1.012,0.428-1.23,1.088c-0.096,0.297-0.256-0.167-0.436-0.22c-0.142-0.041-0.203-0.44-0.375-0.142
			c-0.073,0.127-0.366,0.32-0.113,0.581c0.13,0.135,0.344,0.377,0.299,0.466c-0.164,0.333-0.403,0.632-0.646,0.921
			c-0.02,0.024-0.285-0.097-0.377-0.201c-0.305-0.353-0.144-0.646,0.148-0.925c0.103-0.098,0.146-0.257,0.215-0.381
			c-0.57-0.425-0.799,0.149-1.162,0.291c-0.193,0.073-0.825,0.142-0.838-0.225c-0.002-0.07-0.338-0.155-0.338-0.242v-0.228
			C193,132.24,192.379,132.153,192.556,132.138z M200.148,139.896c-0.216-0.329-0.273-1.205,0.705-0.697
			c0.263,0.136,0.143-0.175,0.238-0.22c0.149-0.069,0.243-0.698,0.522-0.038c0.051,0.121,0.41,0.141,0.38,0.558
			c-0.061,0.816-0.416,1.72,0.38,2.457c0.385-0.663-0.167-1.235-0.102-1.959c0.558,0.261,0.905,1.387,1.505,0.254
			c0.37,0.558-0.099,1.222,0.554,1.738c-0.043-0.869,0.348-1.398,1.031-1.672c0.475-0.19-0.247-0.735,0.148-0.682
			c0.524,0.072-0.028-0.789,0.528-0.482c0.345,0.189,0.181,0.438,0.069,0.684c-0.73,1.621,0.55,2.858,0.845,4.283
			c0.023,0.112,0.366,0.23,0.357,0.119c-0.071-0.854,1.127-0.017,0.921-0.628c-0.198-0.587-0.186-1.549-0.903-1.672
			c-0.952-0.163-0.86-1.21-0.816-1.336c0.673-1.982,3.013-3.864,5.235-2.025c2.222,1.842,2.507,4.95,0.512,7.406
			c-0.301,0.374-0.472,0.575-0.054,0.72c0.881,0.311,0.672,0.878,0.256,1.761c1.109-0.73,1.787-1.538,2.927-1.444
			c0.585,0.052,0.672,0.261,0.585,0.73c-0.803,0.109-0.391,0.803-0.722,1.198c0.887,0.039,0.615-0.679,0.887-0.997
			c0.874,0.297,1.749,0.593,2.796,0.947c-0.363-0.857-1.42-0.672-1.385-1.584c0.234,0,0.498-0.07,0.698,0.013
			c0.912,0.387,1.501,0.126,1.837-0.867c0.037-0.109,0.056-0.227,0.09-0.338c0.174-0.569,0.413-1.114,0.981-1.384
			c0.159-0.074,0.368,0.169,0.354,0.354c-0.051,0.688-0.013,1.45-0.61,1.923c-0.381,0.301-0.961,0.397-0.154,0.88
			c0.134,0.081,0.149,0.419-0.127,0.592c-0.872,0.552-1.487,1.213-1.035,2.369c0.141,0.365-0.473,0.205-0.478,0.523
			c-0.9,0.375-1.633,1.009-2.397,1.592c-0.015,0.013-0.013,0.048-0.012,0.081c-0.466-0.007-0.893,0.11-1.331,0.293
			c-2.814,1.164-5.469,0.756-8.219-0.491c-2.667-1.21-4.471-3.134-5.752-5.621c-0.703-1.367-1.554-2.767-1.072-4.45
			C199.268,141.902,200.789,140.868,200.148,139.896z M200.864,130.515c-0.034-0.593,0.626-0.93,1.19-1.18
			c0.72,0.308,0.25,1.205,0.792,1.653c0.144,0.122-0.308,0.625-0.515,0.551C201.758,131.335,200.907,131.244,200.864,130.515z
			 M206.693,129.771c1.682-1.265,4.152-1.621,5.28-0.747C210.122,128.754,208.54,129.378,206.693,129.771z M221.5,143.068
			c0.264,0.096,0.644,0.167,0.512,0.597c0.025,0.38-0.137,0.741-0.471,0.689c-0.435-0.066-0.236-0.634-0.454-0.936
			C221.009,143.314,221.22,142.966,221.5,143.068z M218.658,154.577c0.504-0.278,0.996-0.544,1.637-0.874
			c-0.525,1.203-1.406,1.734-2.445,1.995c-0.356,0.09-0.561,0.286-0.77,0.508c-0.474,0.505-0.461,0.516-0.749-0.226
			c-0.443-0.1-0.342,0.356-0.512,0.529c-0.88,0.908-2.026,0.509-3.046,0.635c-1.881,0.23-3.655-0.611-5.509-0.684
			c-0.471-0.02-0.72-0.359-0.995-0.563c-1.038-0.77-2.113-1.51-3.177-2.22c-0.859-0.569-0.375-1.364-0.767-1.969
			c-0.111-0.171-0.265-0.915,0.058-1.423c1.285,0.846,2.263,2.076,3.623,2.828c0.739,0.41,1.354,1.066,2.271,1.034
			c1.035-0.036,1.833,0.858,2.878,0.71c0.8-0.114,1.594-0.402,2.387-0.394c0.796,0.011,1.438-0.547,2.228-0.434
			c0.737,0.106,0.996-0.273,0.957-0.938c1.113,0.485,1.916-0.772,2.988-0.563c0.017,0.004,0.096-0.252,0.122-0.394
			c0.027-0.147-0.093-0.224-0.196-0.175c-0.904,0.435-0.074-0.588-0.444-0.593c0.443-0.123,1.533,0.537,0.981-0.852
			c-0.028-0.068,0.507-0.156,0.753-0.042c0.455,0.213,0.515,0.713,0.295,1.016c-0.755,1.032-1.475,2.158-2.81,2.537
			c-1.115,0.315-2.084,0.916-3.091,1.445C216.584,155.748,217.638,155.139,218.658,154.577z M205.884,159.821
			c-0.001-0.009,0.001,0.073-0.001,0.063c0.001,0.001,0.002,0.013,0.003,0.019c0.069,0.754-0.734,1.025-0.958,1.618
			c-0.018,1.262-0.671,1.034-1.412,0.601c0.214-0.554,0.966-0.257,1.211-0.763C204.246,159.636,204.246,159.626,205.884,159.821z
			 M202.563,160.332c-0.261,0.153-0.42,0.327-0.565,0.317c-0.61-0.04-0.528-0.623-0.684-0.997c-0.099-0.231,0.13-0.333,0.356-0.316
			C202.318,159.388,201.827,160.284,202.563,160.332z M200.999,148.567c0.885,0.463,1.175,0.98,1.318,1.781
			C201.508,149.999,201.217,149.479,200.999,148.567z M200.046,145.946c0.502,0.342,0.195,0.882,0.306,1.323
			c0.076,0.01,0.173-0.01,0.226,0.031c0.321,0.228,0.468,0.553,0.463,0.939c0,0.075-0.003,0.177-0.196,0.147
			c-0.575-0.083-0.453-0.61-0.665-0.923c-0.028-0.025-0.064-0.049-0.087-0.081c-0.282-0.402-0.521-0.821-0.315-1.333
			C199.805,145.986,199.999,145.912,200.046,145.946z M201.045,150.681c0.076,0.125,0.044,0.373,0.137,0.423
			c0.303,0.157,0.831,0.299,0.457,0.675c-0.313,0.313-0.623-0.058-0.859-0.462c-0.515-0.876-1.08-1.745-1.75-2.504
			c-0.484-0.544-0.363-1.087-0.233-1.7C199.421,148.409,200.328,149.483,201.045,150.681z M201.59,192.171
			c-0.088,0.01-0.181,0.183-0.258,0.015c-0.133-0.284,0.037-0.512,0.187-0.733c0.104-0.155,0.21-0.307,0.315-0.46
			c0.231-0.405,0.509-0.804,0.423-1.309c-0.194-1.147,0.592-2.194,0.146-3.477c1.085,0.694,0.805,3.056-0.365,4.946
			c-0.006,0.117-0.027,0.234-0.017,0.351C202.055,191.844,202.006,192.115,201.59,192.171z M202.988,185.892
			c-1.123-1.574-0.852-3.531-1.709-5.217c-0.805-1.581-2.03-2.95-2.679-4.612C200.876,177.242,203.927,183.501,202.988,185.892z
			 M200.304,196.293c-0.024,0.175-0.527,0.399-0.768,0.802c-0.333-0.313-0.864-0.582-0.852-1.028
			c0.015-0.527,0.684-0.67,1.057-0.968C199.848,195.016,200.365,195.471,200.304,196.293z M197.904,174.048
			c-0.164-0.048-0.422,0.065-0.445-0.224c-0.006-0.081,0.081-0.221,0.154-0.248c0.235-0.084,0.324,0.137,0.451,0.269
			c0.412,0.793,1.676,0.741,1.813,1.806c0.015-0.002,0.023,0,0.037-0.002c-0.005,0.013-0.003,0.021-0.01,0.034
			c0.273,0.015,0.475,0.146,0.615,0.378c0.223,0.137,0.342,0.334,0.308,0.597c-0.007,0.044-0.122,0.116-0.175,0.106
			c-0.298-0.059-0.334-0.297-0.341-0.547c-0.411,0.015-0.54-0.169-0.407-0.534c-0.006,0-0.013-0.003-0.019-0.003
			c-0.001-0.012-0.007-0.019-0.009-0.029C198.645,175.845,198.354,174.845,197.904,174.048z M197.907,175.607
			c0.002,0-0.091,0.072-0.193,0.088c-0.196,0.027-0.282-0.104-0.261-0.28c0.012-0.085,0.109-0.234,0.152-0.23
			C197.754,175.201,197.914,175.255,197.907,175.607z M197.344,142.289c0.05-0.837-0.631-1.807,0.313-2.155
			c0.517-0.192,1.272,0.583,1.346,0.982C199.268,142.516,197.493,141.15,197.344,142.289z M198.628,146.679
			c-1.015-0.396-0.649-1.216-0.684-2.053C198.7,145.218,198.227,146.076,198.628,146.679z M198.67,156.655
			c0.582,0.074,0.734,0.216,0.709,0.767c-0.04,0.878-0.044,1.763,0,2.643c0.036,0.748-0.274,0.993-0.993,0.955
			c-0.759-0.042-1.521-0.02-2.283-0.02c-0.119,0-0.24,0-0.36,0c-3.16,0-3.087,0.004-3.158-3.16
			c-0.025-1.156,0.723-1.295,1.352-1.172C195.524,156.982,197.094,156.448,198.67,156.655z M195.772,173.771
			c0.674-0.002,0.947,0.612,1.472,0.955c-0.842,0.248-1.245-0.293-1.673-0.792c-0.476-0.226-1.075-0.21-1.438-0.731
			C194.915,172.761,195.264,173.503,195.772,173.771z M194.401,171.905c0.495-0.036,1.038-0.265,1.256,0.466
			c0.156,0.539-0.133,0.615-0.63,0.129C194.833,172.312,194.464,172.359,194.401,171.905z M186.888,188.651
			c-0.66-0.369-1.779-0.758-1.51-2.042c0.169-0.806,1.298-2.206,2.168-2.457c1.715-0.491,3.91,0.417,4.755,1.968
			c0.63,1.162-0.13,3.563-1.255,4.294c-1.083,0.707-2.213,1.065-3.496,0.931c-0.238-0.286-0.552-0.429-0.921-0.465
			c-0.184-1.314,0.985-0.385,1.373-0.853C187.972,189.34,187.574,189.036,186.888,188.651z M191.897,171.146
			c0.548,0,0.981-0.009,1.415,0.002c0.273,0.004,0.28,0.207,0.269,0.412c-0.009,0.176-0.149,0.378-0.258,0.275
			C192.942,171.475,192.271,171.84,191.897,171.146z M191.542,163.166c-0.254-0.421-0.214-0.903,0.181-1.448
			c0.305,0.475,0.561,0.859,0.798,1.251c0.058,0.094,0.064,0.219,0.099,0.345C192.208,163.493,191.78,163.563,191.542,163.166z
			 M193.457,139.42c0.081,0.235,0.312,0.513,0.04,0.613c-0.259,0.094-0.63-0.026-0.814-0.344c-0.209-0.357,0.317-0.785-0.683-1.205
			v-1.047C193,137.873,193.199,138.648,193.457,139.42z M192.149,140.021c0.004,0.884,0.005,1.747-0.015,2.602
			c-0.032,1.43-0.12,2.745-0.173,4.173l-4.13,4.018h-0.001c-0.425,0-0.255-0.674-0.223-1.104c0.37-0.002,0.068,0.465,0.313,0.557
			c0.05-0.07,0.113-0.087,0.113-0.133c0.006-2.01,0.007-4.005,0.01-6.017L192.149,140.021z M187.585,170.675
			c0.428,0.058,1.115-0.459,1.23,0.593c0.078,0.728,1.022,0.179,1.479,0.567c0.162,0.139,0.541,0.017,0.823,0.032
			c0.247,0.013,0.474,0.146,0.444,0.397c-0.021,0.175-0.229,0.346-0.454,0.312c-0.984-0.146-1.975-0.273-2.873-0.741
			c-0.274-0.139,0.425-0.793-0.301-0.641c-0.181,0.036-0.249,0.536-0.403,0.803c-0.072,0.128-0.243,0.311-0.346,0.296
			c-1.165-0.159-2.189,0.613-3.394,0.375c1.058-0.17,1.809-1.326,3.052-0.933c0.33,0.104,0.447-0.149,0.452-0.345
			C187.301,171.092,186.743,170.568,187.585,170.675z M186.107,133.317c-0.026,1.011-0.026,2.022-0.029,3.033l-4.203,4.201
			c-0.119-2.217-0.123-4.429-0.061-6.639l2.795-2.796c0.146,0.086,0.35,0.135,0.545,0.195c0-0.253,0.004-0.495,0.003-0.743
			l0.944-0.944C186.105,130.855,186.142,132.09,186.107,133.317z M181.778,150.397l4.265-4.264c0.028,0.483,0.054,0.966,0.064,1.446
			c0.039,1.646,0.063,3.294-0.001,4.937c-0.003,0.083,0.005,0.165,0.005,0.248l-4.282,4.282
			C181.651,154.846,181.731,152.617,181.778,150.397z M180.073,172.844c0.149-0.056,0.486-0.093,0.468,0.17
			c-0.034,0.424-0.366,0.646-0.763,0.795c-0.208,0.077-0.376,0.268-0.564,0.41C178.873,173.341,179.464,173.072,180.073,172.844z
			 M177.471,175.174c0.031-0.137,0.197-0.35,0.288-0.346c0.393,0.021,0.373,0.438,0.541,0.676c0.082,0.116,0.088,0.29,0.128,0.435
			c0.233,0.073,0.26,0.226,0.168,0.425c-0.107-0.072-0.216-0.146-0.326-0.22c-0.101-0.06-0.194-0.149-0.305-0.178
			C177.546,175.854,177.375,175.58,177.471,175.174z M176.662,178.908c-0.41,0.696-0.814,1.389-1.271,2.166
			C175.374,179.701,175.869,178.893,176.662,178.908z M174.334,179.342c0.261-0.527,0.594-1.019,1.013-1.717
			c0.322,1.108-0.388,1.58-0.737,2.136C174.472,179.98,174.247,179.519,174.334,179.342z M173.374,181.519
			c0.032-0.525,0.853-0.706,0.813-1.369c0.153,0.624,0.094,1.115-0.261,1.718c-0.579,0.984-0.6,2.177-0.568,3.323
			c0.006,0.235-0.168,0.601,0.297,0.642c0.52,0.046,0.598-0.455,0.618-0.703c0.084-0.98-0.006-1.979,0.28-2.944
			c0.043-0.143,0.066-0.292,0.273-0.458c-0.154,2.647,1.063,5.038,1.206,7.634c0.314-0.997-0.088-1.95-0.066-2.93
			c0.037-1.674,0.402-3.205,1.217-4.66c0.166-0.299,0.365-0.325,0.555-0.245c0.352,0.149,0.163,0.38-0.027,0.536
			c-0.513,0.419-0.145,0.696,0.165,0.938c0.409,0.314,0.538-0.184,0.681-0.353c0.381-0.448,0.699-0.959,0.998-1.47
			c0.508-0.876,1.236-1.054,1.681-0.22c0.303,0.564,1.271,0.635,1.059,1.54c-0.058,0.252,0.322,0.261,0.461,0.19
			c0.881-0.475,1.364,0.451,2.011,0.461c0.288,0.446-1.506,0.122-0.185,0.838c-0.921,0.85,0.468,0.889,0.498,1.405
			c0.028,0.479,0.229,0.917-0.152,1.421c-0.842,1.118,0.312,3.826,1.67,4.095c0.017,0.733,0.552,0.452,0.933,0.473
			c-0.186,0.474,0.29,0.686,0.49,0.675c0.841-0.032,1.662,0.242,2.515,0.07c0.384-0.074,0.634-0.128,0.788-0.522
			c0.117-0.3,0.207-0.79,0.674-0.677c0.518,0.125,0.362,0.733,0.571,1.099c0.135,0.233,0.153,0.573-0.28,0.867
			c-0.878,0.601-1.922,0.488-2.845,0.866c-0.444,0.183-1.034-0.144-0.604,0.837c0.238,0.538-0.631,1-1.288,1.106
			c-0.427,0.068-0.889-0.137-0.543,0.682c0.162,0.378-0.476,0.504-0.9,0.292c-0.508-0.253-0.863-0.537-0.781,0.477
			c0.05,0.611-0.733,1.014-1.343,0.614c-1.671-1.097-3.635-1.802-4.86-3.523c-0.299-0.422-0.957-0.411-1.273-0.942
			c-0.022,0.705-0.115,1.369,0.476,1.927c0.63,0.597,1.229,1.255,0.644,2.196c-0.116,0.186,0.138,0.637-0.302,0.551
			c-0.326-0.063-0.726-0.188-0.731-0.65c-0.005-0.357-0.051-0.752,0.08-1.063c0.105-0.256,0.196-0.425-0.035-0.605
			c-1.554-1.208-2.129-3.039-2.98-4.688c-0.471-0.911-0.578-1.918-0.685-2.92c-0.043-0.384,0.113-0.794-0.214-1.138
			c-0.176-0.185,0.229-0.691-0.272-0.684c-0.441,0.008-0.302,0.371-0.371,0.715c-0.402,1.989,0.681,3.604,1.21,5.343
			c0.273,0.902,0.843,1.715,1.281,2.568c0.143,0.164,0.435,0.236,0.346,0.538c-0.011,0.04-0.128,0.064-0.197,0.072
			c-0.366,0.047-0.332-0.227-0.355-0.455c-1.433-1.91-2.142-4.048-2.76-6.379C172.307,186.078,173.232,183.875,173.374,181.519z
			 M188.781,199.792c0.467,0.479,1.185,0.41,1.379,1.09c0.065,0.222,0.155,0.501-0.146,0.586c-0.205,0.058-0.454-0.033-0.684-0.057
			C189.467,200.813,188.736,200.519,188.781,199.792z M187.785,201.24c-1.359,0.523-2.559,0.08-3.896-0.558
			C185.395,200.184,186.539,201.074,187.785,201.24z M176.979,195.906c-0.064,0.099-0.105,0.157-0.143,0.218
			c-0.063-0.079-0.14-0.151-0.181-0.242c-0.013-0.031,0.067-0.102,0.103-0.155C176.832,195.786,176.906,195.846,176.979,195.906z
			 M167.551,174.976c-0.089-0.462,0.319-0.466,0.569-0.59c0.178-0.09,0.165,0.103,0.164,0.196c-0.004,0.488-0.425,0.52-0.743,0.66
			c-0.058-0.027-0.118-0.056-0.176-0.083C167.427,175.1,167.488,175.037,167.551,174.976z M167.674,175.285
			c0.182,0.474,0.193,0.822-0.131,1.425C167.278,176.037,167.236,175.687,167.674,175.285z M167.008,203.714
			c0.214,0.863,0.287,1.741,0.312,2.626l-0.729,0.011c-0.012-0.311-0.001-0.599,0.118-0.806
			C167.093,204.872,166.015,204.18,167.008,203.714z M170.672,217.604c-0.815-0.131-1.582-0.151-2.375,0.027
			c-0.438,0.098-0.689-0.24-0.87-0.521c-0.764-1.192-0.855-2.331-0.051-3.405l3.979,3.979
			C171.126,217.664,170.9,217.641,170.672,217.604z M175.573,210.842c-0.403-0.305-0.947-0.447-1.492-0.447
			c-0.088,0-0.164,0.015-0.244,0.023l-3.175-3.175c0.725-0.017,1.447-0.014,2.155,0.09c0.709,0.104,1.409,0.176,2.116,0.177
			c0.9,0.005,1.798,0,2.697,0.003l3.206,3.204l-1.363,0.124c-1.136,0-2.329,0.128-3.558,0.2L175.573,210.842z M177.304,213.885
			c1.246,0.024,2.491,0.05,3.738,0.079c1.036,0.025,2.073,0.045,3.109,0.067l3.744,3.746c-0.247,0.01-0.496,0.013-0.742,0.026
			c-1.903,0.102-3.822,0.199-5.732,0.196L177.304,213.885z M192.358,235.438c-0.119,0.891-0.481,1.757-1.448,2.088
			c-0.393,0.134-0.768,0.277-1.114,0.474h-1.085c0.19-0.109,0.346-0.229,0.229-0.529c-0.191-0.493-0.546-0.126-0.765-0.063
			c-1.454,0.425-2.875-0.729-2.774-2.311c0.04-0.587,0.392-0.592,0.922-0.831c1.432-0.646,2.781,0.515,4.113-0.227
			C191.467,233.468,192.52,234.241,192.358,235.438z M193.41,210.875c-0.008,0.01-0.021,0.019-0.035,0.029
			c-0.014-0.027-0.029-0.057-0.048-0.083c-0.203-0.308-0.71-0.347-0.982-0.205c-0.196-0.025-0.396-0.034-0.598-0.034l-0.67-0.283
			L190.584,210c-0.005,0-0.012,0-0.017,0l-3.184-2c0.419,0,0.839,0,1.257,0c0.728,0,1.393-0.171,2.086,0.213
			c0.538,0.3,1.311-0.243,1.907-0.398c0.515-0.137,1.008-0.227,1.488-0.2l2.804,2.769c-0.227,0.221-0.397,0.233-0.521,0.233
			c-0.253,0-0.567-0.15-0.894-0.307C194.55,209.85,193.557,210.187,193.41,210.875z M197.906,226.57
			c-1.06,0.083-1.411-1.054-2.587-1.436c1.425-0.089,1.997,0.835,2.795,1.28c0.072,0.107,0.142,0.217,0.212,0.324
			C198.128,226.827,197.975,226.803,197.906,226.57z M201.807,234.087c-0.441-1.068-1.309-1.948-1.442-3.146
			c-0.018-0.011-0.031-0.023-0.05-0.034c-0.005-0.02-0.011-0.036-0.017-0.054c-0.807-0.218-1.156-0.835-1.49-1.745
			c0.97,0.379,1.272,1.032,1.49,1.745c0.018,0.006,0.035,0.012,0.054,0.018c0.002,0.025,0.009,0.047,0.013,0.07
			c1.039,0.744,1.62,1.856,1.824,3.019c0.116,0.661,0.952,1.175,0.419,1.986C201.688,235.627,202.055,234.683,201.807,234.087z
			 M202.52,238c-0.131-0.303,0.209-0.459,0.512-0.724c0.113,0.276,0.294,0.489,0.379,0.724H202.52z M203.024,217.711
			c-1.273-0.059-2.6,0.209-3.903,0.153c-0.476-0.019-0.951-0.096-1.428-0.104l-3.901-3.927c1.544-0.015,3.09-0.015,4.634-0.004
			c0.664,0.004,1.33,0.009,1.995,0.013l3.841,3.844C203.85,217.706,203.436,217.729,203.024,217.711z M203.249,190.356
			c0.103-0.7,0.207-1.401,0.313-2.103c0.103,0.01,0.207,0.021,0.308,0.03C204.003,189.012,204.073,189.732,203.249,190.356z
			 M204.418,238c-0.698-1.055-0.229-2.074-0.635-2.918c0.932,0.711,0.576,1.71,0.665,2.918H204.418z M205.151,208.836l-1.329-1.33
			c0.203-0.002,0.406,0.003,0.609-0.002c0.589-0.015,0.76,0.173,0.731,0.743C205.15,208.442,205.154,208.64,205.151,208.836z
			 M204.455,193.994c0.497,0.826,1.07,1.473,0.32,2.346C204.842,195.599,204.381,194.912,204.455,193.994z M207.366,190.454
			c-0.536,0.12-0.976,0.652-1.533,0.506c-0.738-0.193-1.394-0.604-1.396-1.494c-0.007-1.491-0.887-2.771-0.899-4.303
			c-0.009-0.848,0.025-1.773-0.238-2.683c-0.245-0.838-0.687-1.637-0.746-2.531c-0.528-0.907-1.295-1.688-1.423-2.81
			c1.06,0.562,1.166,1.72,1.629,2.652c0.959,0.699,0.891,1.853,1.152,2.82c0.28,1.04,0.681,2.074,0.578,3.224
			c-0.031,0.325,0.502,0.831,0.892,1.036c1.218,0.647,1.359,2.023,2.129,2.963C207.656,190.013,207.613,190.401,207.366,190.454z
			 M206.133,161.763c-0.162,0.351-0.436,0.229-0.686,0.147c-0.033-0.011-0.06-0.148-0.039-0.214
			c0.109-0.345,0.391,0.186,0.521-0.096c0.185-0.18,0.314-0.521,0.657-0.22c0.362,0.318,0.604,0.63,1.094-0.003
			c0.295-0.38,0.469,0.733,1.064,0.483C207.818,162.507,206.972,162.226,206.133,161.763z M209.12,178.946
			c0.012-0.03,0.033-0.07,0.033-0.081c0.015,0.009,0.048-0.012,0.063,0c0.042-0.477-0.529-0.924-0.089-1.429
			c1.299,1.517,1.232,1.901,0.313,3.1C209.234,180.023,209.637,179.383,209.12,178.946z M208.764,175.443
			c-0.573-0.087-0.476-0.686-0.694-1.088c0.255,0.541,1.097-0.29,1.167,0.53C209.264,175.195,209.056,175.49,208.764,175.443z
			 M208.099,169.541c0.707,0.734,0.651,1.49,0.058,2.234C208.416,171.013,207.818,170.281,208.099,169.541z M208.051,177.462
			c0.006-0.421-0.176-0.899,0.362-1.237c0.306,0.65,0.251,1.354,0.347,2.03c0.032,0.241-0.016,0.534,0.222,0.589
			c0.004,0.001,0.019,0.003,0.019,0.003c0,0.001,0,0.002,0,0.004c0,0,0.012,0.009,0.021,0.01c0.014-0.001-0.021-0.003-0.021-0.005
			c0,0.001,0,0.035,0,0.07c0.033,0,0.063,0.021,0.087-0.015c0.061,0.652-0.12,1.199-0.877,1.472
			c0.849-0.286,1.337,0.496,2.004,0.618c0.202,0.036,0.284,0.288,0.206,0.375c-0.805,0.904-0.199,1.827-0.125,2.779
			c0.301,3.74,0.117,7.5,0.141,11.249c0.005,0.807,0.231,1.582,0.264,2.366c0.044,1,0.05,2.04-0.556,3.116
			c-0.505-1.371-0.381-2.582-0.433-3.775c-0.032-0.684-0.31-1.275-0.1-2.067c0.442-1.653-0.266-3.365,0.045-5.119
			c0.246-1.394,0.096-2.914-0.168-4.364c-0.033-0.19,0.019-0.414-0.27-0.44c-1.636-0.149-1.152-1.436-1.186-2.348
			C207.971,181.004,208.03,179.232,208.051,177.462z M210.47,205.064c-0.451,0.081-0.659-0.53-0.616-0.707
			c0.269-1.079-0.111-2.237,0.436-3.267c0.273,1.064,0.118,2.134,0.38,3.172C210.728,204.498,210.897,204.985,210.47,205.064z
			 M208.586,187.171c0.192,0.366,0.154,0.662,0.138,1.036c-0.322-0.177-0.756-0.455-0.636-0.67c0.328-0.599,0.045-1.191,0.16-1.763
			c0.04-0.197,0.332-0.268,0.484-0.068c0.184,0.232,0.399,0.506,0.429,0.781C209.197,186.845,208.334,186.688,208.586,187.171z
			 M209.311,211.597c0.434-0.056,0.586-0.304,0.754-0.849c0.501-1.638-0.678-3.347,0.477-4.887c0.159,2.468,0.288,4.933-0.4,7.354
			c-0.019,0.074-0.102,0.13-0.121,0.203c-0.021,0.087-0.038,0.15-0.058,0.229l-1.932-1.934
			C208.457,211.683,208.886,211.651,209.311,211.597z M210.221,222.255c0.717,0.651,0.397,1.398,0.316,2.097
			C209.883,223.745,209.795,223.071,210.221,222.255z M211,234.862c-2-1.833-2-2.382,0-2.991C211,232.837,211,233.777,211,234.862z
			 M210.895,211.832c0.363,0.928,0.315,1.255-0.338,2.41l-0.024-0.024C210.295,213.338,210.637,212.66,210.895,211.832z
			 M227.713,163.664c-0.413,0.009-0.374,0.154-0.146,0.385c0.138,0.141,0.332,0.294,0.155,0.49c-0.082,0.09-0.311,0.12-0.439,0.074
			c-0.187-0.065-0.441-0.134-0.327-0.462c0.258-0.73-0.42-0.684-0.724-0.697c-1.779-0.066-3.594-0.254-5.326-0.151
			c-1.94,0.113-3.894-0.5-5.811,0.118c-0.156,0.049-0.358-0.039-0.505-0.061c-0.107-0.628,0.521-0.236,0.609-0.628
			c-0.444-0.167-0.93-0.835-1.167,0.259c-0.035,0.158-0.342,0.331-0.547,0.365c-1.146,0.196-2.308,0.056-3.385-0.265
			c-0.627-0.187-0.599-0.951,0.007-1.314c1.007-0.602,0.551-0.799-0.197-1.01c-0.291-0.084-0.59-0.185-0.845-0.344
			c-0.635-0.397-0.566-0.357-1.117,0.202c-0.198,0.201-0.72,0.494-1.13,0.073c-0.267-0.275-0.548-0.533-0.827-0.797
			c0.565-0.735,1.126,0.082,1.704,0.048c0.766-0.043,1.666-0.457,2.341,0.328c0.104,0.119,0.308,0.047,0.418-0.088
			c0.841-1.021,2.078-0.353,3.081-0.703c0.068-0.024,1.048-0.209,0.609,0.759c-0.244,0.536,0.323,0.116,0.563,0.106
			c-0.003,0.01-0.005,0.019-0.006,0.028c0.021-0.006,0.043-0.012,0.064-0.019c-0.01-0.005-0.021-0.012-0.03-0.016
			c0,0-0.002,0.002-0.003,0.002c-0.008,0-0.018,0.002-0.025,0.002c0.236-1.677,1.368-2.342,3.004-1.749
			c-0.035-0.444,1.162-1.901,1.61-1.897c0.622,0.007,0.395,0.609,0.64,0.979c0.028-1.284,0.596-2.26,1.646-2.871
			c-0.235-0.353-0.375-0.288-0.521-0.207c-0.233,0.126-0.517,0.454-0.731,0.158c-0.187-0.262,0.109-0.43,0.379-0.579
			c0.231-0.128,0.554-0.325,0.033-0.664c-0.546-0.359,0.102-0.586,0.281-0.779c0.298-0.321,0.427-0.133,0.498,0.249
			c0.123,0.675,0.457,0.002,0.692,0.03c0.388,0.046,0.348-0.475,0.151-0.575c-0.564-0.292-0.452-0.668-0.236-1.067
			c0.156-0.293,0.49-0.291,0.754-0.22c0.564,0.155,0.39,0.569,0.345,0.988c-0.021,0.207,0.201,0.579,0.39,0.643
			c0.401,0.135,0.236-0.421,0.481-0.538c0.294-0.188,0.468-0.6,0.217-0.727c-0.302-0.149-0.404,0.268-0.42,0.564
			c-0.542-0.643-0.124-1.329,0.271-1.619c0.72-0.53,0.845-1.209,0.972-1.957c0.53-0.104,0.475,0.265,0.462,0.583
			c-0.014,0.351,0.208,0.417,0.459,0.348c0.461-0.127-0.045-0.331,0.02-0.522c0.169-0.511-0.284-0.928-0.086-1.563
			c0.441-1.396,0.346-2.925,0.797-4.35c0.167-0.527-0.094-0.955-0.646-1.19c0.154,2.296-0.745,4.353-1.172,6.497
			c-0.447,0.275-0.37-0.14-0.322-0.296c0.563-1.813,0.314-3.721,0.665-5.566c0.099-0.521,0.151-1.171-0.114-1.743
			c-0.078-0.169-0.113-0.399-0.067-0.574c0.458-1.79-0.302-3.31-1.042-4.834c-0.623-1.289-1.293-2.546-2.345-3.55
			c-0.162-0.156-0.244-0.293-0.019-0.463c0.309-0.23,0.637-0.232,0.824,0.088c0.264,0.448,0.574,0.837,0.976,1.158
			c0.204,0.132,0.055,0.499,0.369,0.56c0.081,0.576,0.534,0.925,0.836,1.367c0.205,0.132,0.053,0.5,0.368,0.56
			c0.216,0.38-0.41,1.097,0.482,1.205c-0.041,1.336,0.758,2.474,0.75,3.807c0.292-0.408-0.037-0.698,0.024-1.113
			c0.157-1.002-0.06-1.995-0.603-2.886c-0.334-0.336,0.074-0.97-0.49-1.213c-0.201-0.133-0.051-0.499-0.366-0.559
			c0.1-0.688-0.429-0.991-0.837-1.369c-0.203-0.133-0.053-0.498-0.367-0.558c-0.233-0.726-0.576-1.391-1.349-1.626
			c-0.592-0.181-0.765-0.728-1.134-1.228c-0.394,0.643,0.276,0.923,0.093,1.574c-4.028-2.935-8.268-5.221-13.565-3.202
			c0.673-1.124,1.16-1.38,2.789-1.205c0.449,0.049,0.641,0.225,0.622-0.353c-0.017-0.502-0.264-0.684-0.756-0.692
			c-0.871-0.017-1.782,0.248-2.452,0.57c-1.035,0.499-2.31,0.419-3.17,1.327c-0.277,0.293-0.746,0.703-0.831-0.19
			c0.23-0.07,0.256-0.223,0.169-0.421c-0.107,0.071-0.215,0.142-0.323,0.213c-0.535,0.354-1.604-0.298-1.693,0.898
			c-0.213-0.078-0.536-0.098-0.624-0.248c-0.313-0.538-0.513-0.149-0.828-0.015c-0.646,0.273-0.004,0.384,0.051,0.529
			c0.144,0.394,0.231,0.846-0.022,1.126c-0.228,0.25-0.586,0.011-0.812-0.247c-0.024-0.028-0.076-0.084-0.081-0.08
			c-1.745,1.214-0.681-0.696-1.283-0.929c0.789-0.28,0.529,0.606,1.066,0.5c0.239-0.147,0.501-0.615,0.364-0.782
			c-0.216-0.261-0.657-0.421-1.083-0.32c-0.434,0.102-0.962,0.13-1.078,0.662c-0.14,0.637-0.618,1.444,0.604,1.642
			c0.189,0.031,0.509,0.307,0.486,0.625c-0.017,0.255,0.533,0.101,0.28,0.419c-0.107,0.134-0.424,0.29-0.497,0.234
			c-0.929-0.686-1.938-0.063-2.892-0.218c-0.461-0.077-0.891-0.628-1.395-0.013c-0.098,0.12-0.407-0.124-0.249-0.34
			c0.217-0.299,0.034-0.482-0.15-0.556c-1.077-0.425-0.477-1.062-0.183-1.706c-0.643,0.004-0.922,0.335-1.051,0.972
			c-0.636-0.814-0.322-1.664-0.32-2.438c0.002-0.412,1.017,0.18,0.929-0.674c-0.062-0.626-0.958-0.445-0.965-1.078
			c-0.004-0.385-0.134-0.771-0.226-1.157c0.037,2.193-0.077,4.383-0.212,6.568l-3.831,3.833c-0.04-0.98-0.696-1.917-0.589-2.925
			c0.116-1.07,0.081-2.157,0.055-3.243l4.524-4.525c-0.014-0.09-0.031-0.181-0.034-0.271L192,123.117v-2.313
			c1-0.17,2.021,0.569,2.972,0.269c0.139-0.043,0.889,0.072,0.873,0.585c-0.009,0.257,0.215,0.335,0.451,0.335
			c0.249-0.002,0.416-0.123,0.38-0.364c-0.122-0.813,0.448-0.35,0.712-0.351c2.007-0.016,4.026-0.061,6.03,0.017
			c0.844,0.032,2.018-0.427,2.301,1.049c0.043,0.228,0.645,0.293,0.611-0.227c-0.047-0.749,0.438-0.651,0.852-0.598
			c1.536,0.2,3.09-0.239,4.637,0.196c0.516,0.146,1.151-0.184,1.733-0.194c2.017-0.029,4.021,0.244,6.022,0.364
			c1.129,0.067,2.314,0.089,3.474,0.087c0.825-0.003,1.653-0.215,1.932,1.09c0.034-1.561,1.047-1.023,1.7-1.054
			c1.173-0.054,1.16-0.02,0.889,1.006c-0.068,0.265-0.015,0.56-0.015,0.842c0,4.859,0.058,9.718-0.034,14.573
			c-0.031,1.698-0.112,3.431-0.088,5.104c0.027,2.094,0.195,4.226,0.063,6.313c-0.127,1.986-0.115,4.01-0.039,5.944
			c0.093,2.453-0.403,5.004,0.481,7.411C228.049,163.506,228.047,163.656,227.713,163.664z M222.842,144.932
			c0.497-1.01,0.338-1.917,0.391-2.822C223.943,142.739,223.818,144.164,222.842,144.932z M228.741,121.278
			c-0.058,0.219-0.159,0.359-0.484,0.35c-3.898-0.137-7.8-0.211-11.697-0.372c-2.152-0.088-4.295-0.31-6.442-0.468
			c-0.331-0.023-0.762-0.372-0.896,0.301c-0.049,0.246-0.266,0.203-0.458,0.059c-0.662-0.49-1.438-0.396-2.177-0.352
			c-2.357,0.146-4.727-0.085-7.063-0.155c-2.349-0.073-4.741-0.184-7.107-0.376c-0.032-0.002-0.055-0.1-0.085-0.104L192.248,120
			h-0.18c-0.453,0-0.73-0.646-0.867-1.169c-0.074-0.28,0.188-0.232,0.389-0.251c0.644-0.064,0.848,0.365,0.892,0.978
			c0.305-1.069,1.284-0.903,1.805-0.877c1.282,0.063,2.701-0.137,3.783,0.104c1.774,0.392,3.559-0.122,5.252,0.488
			c0.937,0.338,1.88-0.052,2.8-0.126c1.158-0.092,2.268,0.205,3.413,0.149c0.46-0.021,0.954,0.05,1.442,0.06
			c3.343,0.057,6.683,0.11,10.023,0.249c1.457,0.06,2.913-0.135,4.375,0.192c1.095,0.245,2.028,0.944,3.175,1.008
			C228.826,120.82,228.786,121.104,228.741,121.278z"/>
	</g>
</g>
</svg>
