<?xml version="1.0" encoding="utf-8"?>
<!-- Generator: Adobe Illustrator 16.0.0, SVG Export Plug-In . SVG Version: 6.00 Build 0)  -->
<!DOCTYPE svg PUBLIC "-//W3C//DTD SVG 1.1 Tiny//EN" "http://www.w3.org/Graphics/SVG/1.1/DTD/svg11-tiny.dtd">
<svg version="1.1" baseProfile="tiny" id="Layer_1" xmlns="http://www.w3.org/2000/svg" xmlns:xlink="http://www.w3.org/1999/xlink"
	 x="0px" y="0px" width="256px" height="256px" viewBox="0 0 256 256" xml:space="preserve">
<path d="M80.068,165.291l-37.896-37.896l9.139-9.138c3.98-3.98,6.969-6.065,8.967-6.256c1.998-0.189,4.705,1.425,8.123,4.843
	l3.92,3.919c2.75,2.75,4.318,4.858,4.706,6.323c0.387,1.467,0.124,3.157-0.786,5.071c1.762-0.973,3.377-1.287,4.842-0.947
	c1.467,0.344,3.148,1.463,5.048,3.362l12.328,12.328l-8.044,8.044l-13.012-13.012c-0.79-0.79-1.451-1.192-1.982-1.207
	c-0.532-0.016-1.154,0.334-1.869,1.048l-0.479,0.479L88.09,157.27L80.068,165.291z M65.871,130.402l-5.195-5.195
	c-0.941-0.942-1.625-1.413-2.051-1.413s-0.965,0.327-1.618,0.98l-0.706,0.707l9.707,9.708c0.092-0.091,0.229-0.212,0.41-0.364
	c0.183-0.152,0.313-0.266,0.388-0.342c0.608-0.607,0.919-1.125,0.935-1.551c0.014-0.424-0.266-0.926-0.844-1.504L65.871,130.402z"/>
<path d="M100.646,144.714l-33.042-42.75l9.707-9.708l42.796,32.997l-7.565,7.565l-8.09-6.859l-3.213,3.212l6.859,8.09
	L100.646,144.714z M95.495,122.609l2.438-2.438l-15.814-13.399L95.495,122.609z"/>
<path d="M93.764,75.804c4.133-4.132,7.167-6.247,9.104-6.346c1.938-0.099,4.584,1.53,7.941,4.888l22.264,22.263
	c3.434,3.434,5.082,6.115,4.945,8.044c-0.137,1.93-2.241,4.93-6.313,9.001l-9.184,9.183L84.626,84.941L93.764,75.804z
	 M98.709,82.982l25.727,25.727c0.092-0.091,0.236-0.22,0.434-0.387s0.334-0.289,0.41-0.365c0.577-0.577,0.877-1.075,0.899-1.492
	c0.022-0.418-0.224-0.885-0.74-1.401l-0.979-0.98l-21.216-21.215c-1.019-1.018-1.747-1.535-2.188-1.55
	c-0.44-0.015-0.987,0.304-1.641,0.957L98.709,82.982z"/>
<path d="M144.125,101.235l-37.896-37.896l7.976-7.976L152.1,93.259L144.125,101.235z"/>
<path d="M125.051,59.738c-3.524-3.524-5.195-6.229-5.014-8.113c0.183-1.883,2.287-4.838,6.313-8.864
	c4.117-4.117,7.141-6.229,9.07-6.335c1.929-0.106,4.596,1.542,7.998,4.945L166.047,64c3.479,3.479,5.153,6.187,5.023,8.124
	c-0.129,1.938-2.221,4.934-6.277,8.99c-4.102,4.102-7.121,6.195-9.059,6.278c-1.938,0.084-4.622-1.591-8.055-5.024L125.051,59.738z
	 M133.301,51.945l22.172,22.172c0.714,0.714,1.299,1.125,1.755,1.231c0.456,0.106,0.896-0.054,1.321-0.479
	c0.38-0.38,0.566-0.771,0.559-1.173c-0.008-0.402-0.193-0.786-0.559-1.151l-0.752-0.752l-22.172-22.172
	c-0.729-0.729-1.314-1.132-1.756-1.208c-0.439-0.076-0.91,0.137-1.412,0.638c-0.334,0.334-0.486,0.692-0.457,1.071
	c0.031,0.381,0.229,0.752,0.594,1.117L133.301,51.945z"/>
<path d="M102.961,189.916l-18.949-18.949l4.569-4.568c1.989-1.99,3.485-3.033,4.484-3.128s2.353,0.712,4.062,2.421l1.983,1.983
	c0.874,0.874,1.393,1.679,1.561,2.415c0.167,0.736,0.003,1.49-0.49,2.257c0.935-0.417,1.757-0.534,2.467-0.348
	c0.71,0.186,1.54,0.753,2.489,1.702l3.077,3.077c1.724,1.724,2.537,3.088,2.438,4.091c-0.099,1.002-1.132,2.488-3.099,4.454
	L102.961,189.916z M95.281,171.891l-2.107-2.107c-0.395-0.395-0.705-0.595-0.929-0.599c-0.225-0.004-0.512,0.169-0.86,0.518
	l-0.309,0.308l3.965,3.965c0.039-0.037,0.105-0.092,0.2-0.164s0.157-0.123,0.188-0.154c0.288-0.288,0.446-0.544,0.473-0.769
	c0.026-0.224-0.066-0.442-0.279-0.655L95.281,171.891z M104.123,180.732l-3.578-3.578c-0.395-0.395-0.705-0.594-0.928-0.598
	c-0.225-0.004-0.512,0.169-0.86,0.518l-0.308,0.309l5.445,5.445c0.039-0.037,0.104-0.094,0.194-0.17s0.151-0.129,0.183-0.16
	c0.288-0.288,0.447-0.543,0.479-0.764c0.029-0.22-0.064-0.439-0.285-0.66L104.123,180.732z"/>
<path d="M113.762,179.114l-18.948-18.948l4.569-4.568c1.99-1.99,3.485-3.033,4.484-3.129c0.998-0.094,2.353,0.713,4.061,2.422
	l1.961,1.959c1.375,1.376,2.158,2.43,2.353,3.163s0.063,1.578-0.394,2.534c0.882-0.485,1.689-0.643,2.422-0.473
	c0.732,0.172,1.574,0.731,2.523,1.682l6.164,6.163l-4.022,4.022l-6.506-6.506c-0.395-0.395-0.726-0.596-0.991-0.604
	s-0.578,0.166-0.935,0.523l-0.239,0.239l7.509,7.509L113.762,179.114z M106.664,161.671l-2.598-2.599
	c-0.471-0.471-0.813-0.705-1.025-0.706c-0.213,0-0.483,0.163-0.81,0.489l-0.354,0.354l4.854,4.854
	c0.046-0.046,0.113-0.106,0.204-0.183s0.155-0.133,0.194-0.172c0.303-0.303,0.459-0.562,0.467-0.773
	c0.008-0.213-0.133-0.464-0.422-0.752L106.664,161.671z"/>
<path d="M124.051,168.825l-16.521-21.375l4.854-4.854l21.398,16.499l-3.783,3.782l-4.045-3.429l-1.606,1.606l3.43,4.044
	L124.051,168.825z M121.477,157.773l1.219-1.219l-7.908-6.699L121.477,157.773z"/>
<path d="M134.328,158.548l-3.293-3.292l-9.068-15.748l-2.918,2.918l-3.247-3.248l7.121-7.121l3.247,3.248l9.047,15.77l3.385-3.385
	l3.292,3.293L134.328,158.548z"/>
<path d="M143.455,149.421l-18.948-18.948l6.37-6.37l3.053,3.054l-2.381,2.382l3.942,3.942l2.382-2.382l3.088,3.088l-2.383,2.381
	l5.789,5.789l2.381-2.383l3.076,3.076L143.455,149.421z"/>
<path d="M151.453,141.422l-18.947-18.948l3.725-3.726l11.702,7.713l-9.708-9.708l3.475-3.475l18.949,18.949l-3.738,3.736
	l-11.291-7.281l9.287,9.287L151.453,141.422z"/>
<path d="M167.713,125.164l-18.949-18.948l4.568-4.568c1.99-1.99,3.486-3.033,4.484-3.128c1-0.095,2.354,0.712,4.063,2.421
	l1.982,1.983c0.874,0.874,1.394,1.678,1.561,2.415s0.004,1.49-0.49,2.257c0.936-0.418,1.758-0.534,2.467-0.348
	c0.711,0.185,1.541,0.753,2.49,1.703l3.076,3.077c1.725,1.724,2.537,3.088,2.438,4.09c-0.099,1.003-1.132,2.488-3.099,4.455
	L167.713,125.164z M160.033,107.139l-2.107-2.107c-0.395-0.395-0.705-0.594-0.929-0.599c-0.226-0.003-0.513,0.169-0.86,0.518
	l-0.309,0.308l3.965,3.965c0.038-0.038,0.105-0.093,0.2-0.165c0.095-0.072,0.157-0.123,0.188-0.154
	c0.287-0.288,0.446-0.544,0.473-0.769c0.026-0.224-0.066-0.442-0.279-0.655L160.033,107.139z M168.875,115.98l-3.578-3.578
	c-0.395-0.395-0.705-0.594-0.928-0.598c-0.226-0.004-0.512,0.169-0.861,0.518l-0.308,0.308l5.446,5.446
	c0.038-0.038,0.104-0.095,0.194-0.171s0.151-0.129,0.183-0.16c0.287-0.288,0.447-0.543,0.479-0.763
	c0.029-0.22-0.064-0.44-0.285-0.661L168.875,115.98z"/>
<path d="M178.514,114.362l-18.948-18.948l6.37-6.37l3.053,3.054l-2.381,2.382l3.942,3.943l2.382-2.382l3.088,3.087l-2.383,2.382
	l5.789,5.788l2.381-2.382l3.076,3.076L178.514,114.362z"/>
<path d="M185.999,106.877l-16.521-21.375l4.854-4.854l21.398,16.499l-3.783,3.783l-4.045-3.429l-1.605,1.606l3.428,4.045
	L185.999,106.877z M183.424,95.825l1.22-1.219l-7.907-6.7L183.424,95.825z"/>
<path d="M197.825,95.051L182,79.225l-2.051,2.051l-3.123-3.123l8.09-8.09l3.123,3.123l-2.051,2.051l15.825,15.826L197.825,95.051z"
	/>
<path d="M197.303,80.352l4.021-4.021l3.714,3.714c0.334,0.334,0.619,0.528,0.854,0.581c0.236,0.054,0.463-0.03,0.684-0.25
	c0.174-0.175,0.264-0.374,0.268-0.599c0.004-0.224-0.078-0.419-0.245-0.586l-0.353-0.353l-2.826-2.826
	c-0.38-0.38-0.708-0.603-0.984-0.667c-0.278-0.065-0.656-0.024-1.135,0.119l-4.182,1.197c-0.957,0.273-1.838,0.285-2.643,0.034
	c-0.807-0.25-1.645-0.813-2.518-1.686l-2.211-2.211c-1.693-1.693-2.511-3.022-2.45-3.987c0.062-0.964,1.105-2.461,3.134-4.489
	c1.906-1.906,3.346-2.943,4.318-3.111c0.971-0.166,1.971,0.262,2.996,1.288l1.15,1.15l2.826,2.826l-3.943,3.942l-2.711-2.711
	c-0.371-0.372-0.667-0.576-0.883-0.61c-0.217-0.034-0.443,0.066-0.679,0.302c-0.198,0.198-0.271,0.409-0.221,0.633
	c0.049,0.225,0.248,0.511,0.598,0.86l1.8,1.799c0.364,0.365,0.688,0.582,0.969,0.65c0.281,0.069,0.66,0.031,1.139-0.114l3.807-1.14
	c1.032-0.319,1.936-0.376,2.711-0.17c0.775,0.205,1.584,0.729,2.427,1.571l4.319,4.319c0.645,0.646,1.09,1.163,1.332,1.55
	c0.244,0.388,0.389,0.786,0.434,1.196c0.091,0.578-0.051,1.184-0.428,1.818c-0.376,0.633-1.274,1.661-2.694,3.081
	c-2.074,2.074-3.603,3.132-4.586,3.174c-0.983,0.042-2.311-0.773-3.981-2.445L197.303,80.352z"/>
<path d="M149.066,191.328l-18.947-18.947l3.988-3.988l15.871,15.871l2.381-2.381l3.076,3.076L149.066,191.328z"/>
<path d="M156.951,183.443l-18.947-18.947l3.987-3.987l18.947,18.947L156.951,183.443z"/>
<path d="M154.912,170.261l4.021-4.021l3.715,3.714c0.334,0.334,0.619,0.529,0.854,0.582s0.462-0.031,0.683-0.251
	c0.175-0.175,0.264-0.374,0.269-0.599c0.003-0.224-0.077-0.42-0.245-0.586l-0.354-0.354l-2.825-2.826
	c-0.38-0.38-0.708-0.602-0.985-0.666s-0.655-0.024-1.134,0.12l-4.183,1.196c-0.956,0.272-1.838,0.284-2.643,0.033
	c-0.805-0.25-1.644-0.813-2.518-1.688l-2.21-2.209c-1.694-1.693-2.511-3.023-2.45-3.988s1.105-2.461,3.133-4.488
	c1.906-1.906,3.346-2.943,4.318-3.111c0.973-0.166,1.971,0.262,2.996,1.287l1.152,1.152l2.825,2.825l-3.942,3.942l-2.713-2.713
	c-0.371-0.371-0.666-0.575-0.883-0.609c-0.217-0.033-0.441,0.068-0.678,0.303c-0.197,0.198-0.271,0.408-0.223,0.631
	c0.049,0.225,0.25,0.512,0.599,0.861l1.801,1.801c0.364,0.365,0.687,0.58,0.968,0.648s0.662,0.031,1.141-0.113l3.805-1.14
	c1.033-0.319,1.938-0.376,2.711-0.171c0.775,0.205,1.584,0.729,2.428,1.572l4.318,4.318c0.646,0.646,1.09,1.162,1.333,1.55
	s0.388,0.786,0.433,1.196c0.092,0.578-0.051,1.184-0.428,1.816c-0.375,0.635-1.273,1.662-2.693,3.082
	c-2.074,2.074-3.603,3.132-4.586,3.174c-0.984,0.042-2.311-0.773-3.982-2.444L154.912,170.261z"/>
<path d="M174.828,165.566l-15.826-15.826l-2.051,2.051l-3.121-3.121l8.089-8.089l3.121,3.121l-2.051,2.051l15.826,15.826
	L174.828,165.566z"/>
<path d="M182.063,158.332l-18.947-18.947l6.369-6.369l3.053,3.053l-2.381,2.381l3.942,3.942l2.381-2.381l3.088,3.088l-2.381,2.381
	l5.788,5.788l2.381-2.381l3.076,3.076L182.063,158.332z"/>
<path d="M190.062,150.333l-18.947-18.947l3.726-3.726l11.701,7.713l-9.707-9.707l3.476-3.476l18.947,18.947l-3.737,3.737
	l-11.291-7.28l9.285,9.286L190.062,150.333z"/>
<circle cx="126" cy="196" r="13"/>
</svg>
